<svg xmlns="http://www.w3.org/2000/svg" viewBox="0 0 338.293 43.16"><defs/><g fill="#2056ae"><path d="M0 38.883h20.064c5.305 0 9.915-1.14 13.183-4.02 3.268-2.882 5.272-7.538 5.276-14.768-.003-7.766-1.872-12.482-4.984-15.275-3.112-2.795-7.568-3.734-12.885-3.733v-.001H0v8.163h17.493c2.65-.014 4.463.926 5.487 2.744 1.027 1.805 1.335 4.373 1.338 7.715-.003 3.23-.285 5.77-1.289 7.576-1.002 1.816-2.802 2.789-5.482 2.773H13.56V16.678H0v22.205M41.468 38.883H55.03V25.172h16.896v-8.494H55.029v-7.43h16.896V1.087H41.468v37.797M81.263 5.19c-4.006 3.17-6.539 7.881-6.544 14.242.005 6.789 2.442 11.78 6.393 15.113 3.953 3.333 9.456 5 15.599 5 5.754 0 10.3-.58 15.083-2v-17.44h-11.523v10.158l-.255.1c-.97.368-2.177.353-3.198.358-2.972.008-5.089-1.234-6.388-3.16-1.302-1.923-1.826-4.486-1.828-7.19-.003-3.595 1.218-6.412 3.382-8.294 2.163-1.884 5.223-2.828 8.852-2.828 3.71 0 6.635.834 8.716 1.93V1.776C106.125.94 103.517.426 96.711.423h-.003c-5.927 0-11.437 1.602-15.445 4.767M132.47 13.759h1.105c4.106.091 6.214-1.864 6.321-5.864-.032-2.103-.56-3.587-1.585-4.451-1.044-.825-2.34-1.23-3.888-1.217h-1.953zM131.148 1.04h3.335c2.392.026 4.122.669 5.19 1.927 1.043 1.265 1.558 2.932 1.544 5.002-.024 2.484-.753 4.271-2.185 5.36-1.412 1.078-3.256 1.616-5.53 1.616h-2.354V1.04M150.424 9.157c0-.934-.188-1.75-.565-2.448-.398-.705-1.051-1.07-1.956-1.096-.888.026-1.591.398-2.107 1.115a4.017 4.017 0 00-.793 2.429zm.59 5.472a8.095 8.095 0 01-2.855.56c-1.61-.033-2.762-.545-3.46-1.538-.691-.973-1.031-2.234-1.018-3.785.014-1.583.399-2.864 1.159-3.844.735-.972 1.73-1.466 2.987-1.479 1.374.026 2.38.526 3.014 1.499.603.953.906 2.134.906 3.541v.642h-6.744c0 1.106.277 2.017.83 2.732.54.762 1.347 1.149 2.416 1.162.479 0 .982-.088 1.51-.264.529-.142.948-.309 1.256-.497v1.271M162.05 12.553c-.014.771.014 1.568.083 2.392h-1.177v-1.809h-.039c-.088.22-.21.444-.366.671-.151.24-.35.467-.594.681-.245.201-.548.36-.913.477-.357.149-.793.224-1.308.224-1.193-.013-2.052-.386-2.58-1.12-.527-.72-.785-1.65-.772-2.792V4.786h1.204v6.177c0 .974.187 1.733.557 2.28.366.584.96.876 1.784.876.554 0 1.023-.12 1.406-.36a2.34 2.34 0 00.888-.877c.232-.37.393-.77.48-1.199a5.73 5.73 0 00.142-1.276V4.786h1.204v7.767M169.699 5.856h-2.238v6.587c0 .468.103.86.311 1.18.19.33.523.496 1.001.496.44 0 .815-.081 1.123-.243l.076 1.032c-.144.052-.344.11-.603.174-.269.07-.564.107-.884.107-.526 0-.944-.095-1.25-.283a1.805 1.805 0 01-.668-.74 3.73 3.73 0 01-.255-1.07 14.134 14.134 0 01-.057-1.304V5.856h-1.928v-1.07h1.928V2.335l1.206-.439v2.89h2.238v1.07M171.35 13.475c.746.416 1.6.63 2.56.644.609 0 1.122-.165 1.543-.496.414-.306.628-.744.64-1.316-.012-.604-.25-1.078-.716-1.422a8.634 8.634 0 00-1.638-.896 10.275 10.275 0 01-.848-.459 7.111 7.111 0 01-.772-.535 2.861 2.861 0 01-.547-.74 1.993 1.993 0 01-.208-.936c.013-1.013.345-1.73.997-2.152.635-.416 1.37-.624 2.204-.624.283 0 .65.026 1.102.077.445.078.886.204 1.326.377l-.113 1.093a5.75 5.75 0 00-2.188-.477c-.63 0-1.13.117-1.5.35a1.248 1.248 0 00-.452.507c-.113.208-.17.487-.17.838 0 .208.071.406.217.594.137.175.322.334.556.477.233.137.496.276.792.419.294.137.584.283.866.438.642.28 1.2.653 1.679 1.12.477.469.723 1.114.736 1.94 0 .532-.105.977-.31 1.334-.22.37-.497.669-.829.896a4.32 4.32 0 01-2.294.663 7.98 7.98 0 01-2.746-.482l.112-1.232M186.259 6.13a5.09 5.09 0 00-2.112-.517c-1.182.013-2.087.403-2.716 1.17-.66.787-.99 1.815-.99 3.083 0 1.184.324 2.176.972 2.975.628.84 1.496 1.265 2.603 1.278.76 0 1.501-.153 2.225-.458l.112 1.17c-.797.251-1.638.37-2.524.358-1.581-.033-2.76-.571-3.532-1.615-.785-1.026-1.177-2.262-1.177-3.708.013-1.61.461-2.89 1.347-3.844.88-.972 2.05-1.466 3.513-1.479.604 0 1.104.045 1.507.135.208.039.386.08.537.125.144.052.255.097.33.135l-.095 1.192M188.704 0h1.205v6.49h.038c.27-.567.669-1.039 1.196-1.414.528-.343 1.149-.52 1.865-.533 1.312.013 2.207.413 2.685 1.197.464.798.69 1.84.676 3.124v6.081h-1.204V8.876c0-.448-.025-.874-.076-1.276a2.912 2.912 0 00-.33-1.013c-.307-.636-.954-.961-1.934-.974-1.057.026-1.812.445-2.265 1.256a5.213 5.213 0 00-.65 2.631v5.445h-1.206V0M205.79 9.157c0-.934-.189-1.75-.566-2.448-.397-.705-1.05-1.07-1.956-1.096-.888.026-1.59.398-2.107 1.115a4.026 4.026 0 00-.793 2.429zm.59 5.472a8.082 8.082 0 01-2.855.56c-1.609-.033-2.762-.545-3.46-1.538-.692-.973-1.032-2.234-1.018-3.785.013-1.583.398-2.864 1.158-3.844.735-.972 1.731-1.466 2.988-1.479 1.375.026 2.38.526 3.014 1.499.602.953.905 2.134.905 3.541v.642h-6.744c0 1.106.277 2.017.83 2.732.542.762 1.347 1.149 2.417 1.162.478 0 .981-.088 1.51-.264.528-.142.948-.309 1.255-.497v1.271M131.09 24.954h6.4v1.187h-5.079v4.973h4.844V32.3h-4.844v6.559h-1.32V24.954M140.536 33.78c0 1.21.284 2.208.85 2.995.542.825 1.35 1.245 2.42 1.257 1.071-.012 1.89-.432 2.458-1.257.541-.787.813-1.785.813-2.995 0-1.216-.272-2.228-.813-3.034-.568-.8-1.387-1.206-2.457-1.219-1.071.013-1.879.42-2.42 1.219-.567.806-.851 1.818-.851 3.034zm-1.321 0c0-1.447.373-2.683 1.121-3.707.741-1.051 1.896-1.59 3.467-1.616 1.594.026 2.765.565 3.512 1.616.722 1.024 1.084 2.26 1.084 3.707 0 1.42-.362 2.65-1.084 3.687-.747 1.058-1.918 1.603-3.512 1.636-1.571-.033-2.726-.578-3.467-1.636-.748-1.037-1.121-2.266-1.121-3.687M151.057 30.967c0-.94-.025-1.695-.076-2.266h1.207v1.945h.036a4.4 4.4 0 01.981-1.528c.415-.427.931-.648 1.546-.661.321.013.604.052.848.116v1.305a3.174 3.174 0 00-.886-.117c-.477.013-.87.132-1.178.36-.308.24-.56.565-.754.974a5.035 5.035 0 00-.386 1.296c-.09.493-.134.973-.134 1.44v5.028h-1.204v-7.892M156.937 37.39c.748.416 1.6.63 2.562.642.608 0 1.122-.165 1.542-.496.415-.305.628-.743.642-1.315-.014-.604-.252-1.078-.716-1.421a8.596 8.596 0 00-1.64-.898 10.507 10.507 0 01-.848-.457 7.337 7.337 0 01-.772-.537 2.865 2.865 0 01-.547-.74 2.016 2.016 0 01-.207-.935c.014-1.013.346-1.73.998-2.153.633-.415 1.368-.623 2.202-.623.283 0 .651.026 1.102.078.445.077.886.203 1.328.377l-.114 1.092a5.774 5.774 0 00-2.189-.477c-.63 0-1.13.116-1.5.35a1.235 1.235 0 00-.452.507c-.113.208-.17.487-.17.837 0 .209.073.407.217.595.138.176.322.335.556.477.233.137.496.276.792.42.296.136.584.282.866.438a5.504 5.504 0 011.679 1.12c.479.467.723 1.115.736 1.938 0 .533-.104.978-.31 1.335-.22.37-.497.67-.829.896a4.324 4.324 0 01-2.293.663c-.947 0-1.864-.16-2.747-.482l.112-1.232M171.848 30.044a5.094 5.094 0 00-2.112-.517c-1.183.013-2.088.403-2.716 1.17-.66.787-.99 1.815-.99 3.083 0 1.183.325 2.176.971 2.975.63.839 1.496 1.265 2.603 1.277.76 0 1.501-.152 2.225-.458l.112 1.172c-.797.25-1.637.37-2.524.357-1.581-.033-2.76-.572-3.532-1.616-.785-1.025-1.177-2.26-1.177-3.707.013-1.608.461-2.89 1.347-3.844.88-.973 2.05-1.466 3.514-1.48.603 0 1.104.046 1.507.136.207.04.387.081.536.125.144.052.255.097.33.136l-.094 1.191M174.293 23.913h1.204v6.492h.038c.27-.57.669-1.04 1.197-1.414.527-.343 1.148-.521 1.864-.534 1.313.013 2.208.412 2.685 1.198.466.797.691 1.838.678 3.122v6.082h-1.206V32.79c0-.448-.024-.873-.074-1.276a2.911 2.911 0 00-.331-1.013c-.308-.637-.953-.96-1.933-.974-1.058.026-1.814.444-2.267 1.257a5.21 5.21 0 00-.65 2.63v5.445h-1.205V23.913M193.041 36.466c-.013.772.015 1.57.084 2.393h-1.177v-1.808h-.037c-.09.22-.212.444-.368.67-.151.24-.348.468-.594.681-.245.2-.548.36-.913.477-.357.148-.793.224-1.308.224-1.193-.013-2.052-.387-2.58-1.12-.527-.72-.785-1.65-.772-2.792v-6.49h1.205v6.175c0 .976.186 1.735.558 2.28.364.585.958.876 1.782.876.554 0 1.023-.12 1.406-.359.39-.228.686-.52.888-.878.232-.37.393-.77.48-1.198.096-.421.142-.847.142-1.276v-5.62h1.204v7.765M196.46 31.083c0-.777-.025-1.571-.076-2.382h1.176v1.808h.037c.112-.24.248-.48.404-.719.151-.24.343-.457.575-.652.244-.214.545-.383.903-.505.364-.118.793-.176 1.288-.176 1.21.013 2.08.387 2.605 1.12.503.713.753 1.64.753 2.782v6.5h-1.205v-6.186c0-.967-.172-1.737-.519-2.309-.377-.545-.984-.824-1.82-.837-1.082.026-1.844.422-2.284 1.188a3.823 3.823 0 00-.482 1.18c-.1.44-.151.889-.151 1.343v5.621h-1.204v-7.776M208.28 33.78c-.015 1.04.203 1.951.65 2.732.442.827 1.173 1.252 2.194 1.278 1.096-.026 1.873-.465 2.335-1.318.44-.825.661-1.722.661-2.692 0-1.268-.205-2.29-.615-3.063-.428-.781-1.197-1.177-2.306-1.19-.579 0-1.052.126-1.416.38a2.625 2.625 0 00-.908.995 5.041 5.041 0 00-.463 1.355 8.776 8.776 0 00-.132 1.523zm7.044 4.244c0 1.446-.34 2.656-1.019 3.628-.709.98-1.905 1.482-3.588 1.508a8.395 8.395 0 01-1.781-.212 49.206 49.206 0 01-1.196-.32l.104-1.248c.81.448 1.777.685 2.897.71.787-.012 1.402-.158 1.85-.437a2.434 2.434 0 001.029-1.117c.232-.479.38-1.03.443-1.652.052-.622.076-1.292.076-2.012h-.039c-.696 1.35-1.692 2.014-2.987 1.987-1.545-.04-2.626-.609-3.241-1.712a4.876 4.876 0 01-.679-1.635 6.622 6.622 0 01-.234-1.732c-.014-1.583.302-2.857.952-3.824.64-.986 1.673-1.486 3.1-1.5.645 0 1.214.075 1.704.224.472.18.926.566 1.368 1.159h.037v-1.142l1.204.004v9.323M217.87 37.39c.747.416 1.6.63 2.56.642.609 0 1.123-.165 1.543-.496.415-.305.628-.743.642-1.315-.014-.604-.252-1.078-.716-1.421a8.596 8.596 0 00-1.64-.898 10.478 10.478 0 01-.847-.457 7.218 7.218 0 01-.773-.537 2.865 2.865 0 01-.547-.74 2.016 2.016 0 01-.207-.935c.014-1.013.346-1.73.998-2.153.634-.415 1.368-.623 2.202-.623.283 0 .651.026 1.103.078.445.077.887.203 1.327.377l-.114 1.092a5.763 5.763 0 00-2.189-.477c-.628 0-1.128.116-1.5.35a1.245 1.245 0 00-.452.507c-.113.208-.17.487-.17.837 0 .209.073.407.217.595.138.176.324.335.556.477.233.137.497.276.792.42.296.136.585.282.868.438.641.279 1.2.652 1.677 1.12.479.467.723 1.115.736 1.938 0 .533-.104.978-.31 1.335-.22.37-.495.67-.827.896a4.329 4.329 0 01-2.295.663c-.947 0-1.864-.16-2.747-.482l.112-1.232M227.119 33.78c-.015 1.04.202 1.951.65 2.732.442.827 1.172 1.252 2.194 1.278 1.096-.026 1.873-.465 2.334-1.318.44-.825.662-1.722.662-2.692 0-1.268-.207-2.29-.615-3.063-.428-.781-1.197-1.177-2.307-1.19-.578 0-1.052.126-1.416.38a2.625 2.625 0 00-.908.995 5.041 5.041 0 00-.462 1.355 8.776 8.776 0 00-.132 1.523zm7.044 4.244c0 1.446-.34 2.656-1.019 3.628-.71.98-1.905 1.482-3.588 1.508a8.395 8.395 0 01-1.781-.212 49.206 49.206 0 01-1.196-.32l.104-1.248c.81.448 1.777.685 2.897.71.785-.012 1.401-.158 1.85-.437a2.434 2.434 0 001.029-1.117c.232-.479.38-1.03.442-1.652.052-.622.076-1.292.076-2.012h-.038c-.696 1.35-1.692 2.014-2.987 1.987-1.545-.04-2.627-.609-3.241-1.712a4.907 4.907 0 01-.68-1.635 6.677 6.677 0 01-.234-1.732c-.013-1.583.303-2.857.952-3.824.64-.986 1.672-1.486 3.1-1.5.646 0 1.215.075 1.704.224.472.18.927.566 1.367 1.159h.039v-1.142l1.204.004v9.323M243.468 33.07c0-.932-.19-1.749-.567-2.446-.397-.706-1.049-1.07-1.956-1.097-.888.026-1.589.397-2.106 1.116a4.017 4.017 0 00-.794 2.427zm.59 5.474a8.115 8.115 0 01-2.857.559c-1.609-.033-2.761-.546-3.458-1.538-.692-.973-1.032-2.235-1.019-3.785.013-1.583.399-2.863 1.159-3.844.734-.973 1.73-1.466 2.986-1.48 1.376.027 2.382.527 3.015 1.5.603.952.905 2.134.905 3.541v.642h-6.744c0 1.106.278 2.017.831 2.733.541.76 1.347 1.148 2.416 1.16.479 0 .981-.087 1.51-.263.529-.143.949-.308 1.255-.497v1.272M259.503 38.859v-6.76a6.49 6.49 0 00-.079-1.043 2.157 2.157 0 00-.384-.799 1.627 1.627 0 00-.659-.555c-.281-.117-.632-.175-1.052-.175-.706 0-1.337.292-1.886.876-.564.611-.854 1.556-.866 2.835v5.621h-1.205v-6.76c0-.377-.03-.724-.088-1.043a2.176 2.176 0 00-.383-.799 1.636 1.636 0 00-.658-.555c-.283-.117-.634-.175-1.052-.175-.71 0-1.338.292-1.888.876-.564.611-.852 1.556-.866 2.835v5.621h-1.206v-7.775c0-.778-.026-1.572-.076-2.383h1.212v1.713l.038.018a4.52 4.52 0 01.379-.623c.13-.226.313-.436.552-.632a3.44 3.44 0 01.892-.525c.356-.13.799-.195 1.328-.195.24 0 .499.026.776.078.265.052.53.159.796.32.264.149.497.362.697.64.195.29.334.658.418 1.105h.038a3.532 3.532 0 011.212-1.522c.543-.4 1.218-.608 2.027-.621 1.027.013 1.819.33 2.375.955.542.615.814 1.433.814 2.451v6.996h-1.206M270.03 33.07c0-.932-.187-1.749-.565-2.446-.397-.706-1.049-1.07-1.956-1.097-.888.026-1.59.397-2.106 1.116a4.017 4.017 0 00-.794 2.427zm.591 5.474a8.121 8.121 0 01-2.856.559c-1.609-.033-2.761-.546-3.46-1.538-.69-.973-1.03-2.235-1.017-3.785.013-1.583.399-2.863 1.159-3.844.734-.973 1.73-1.466 2.986-1.48 1.375.027 2.38.527 3.015 1.5.603.952.905 2.134.905 3.541v.642h-6.744c0 1.106.278 2.017.831 2.733.54.76 1.347 1.148 2.416 1.16.479 0 .981-.087 1.51-.263.529-.143.947-.308 1.255-.497v1.272M273.992 28.7h1.204V38.86h-1.204zm1.204-2.715h-1.204v-1.671h1.204v1.671M278.419 31.083a38.2 38.2 0 00-.075-2.382h1.176v1.808h.037c.112-.24.248-.48.404-.719.151-.24.343-.457.574-.652.245-.214.546-.383.904-.505.364-.118.793-.176 1.288-.176 1.21.013 2.078.387 2.605 1.12.503.713.752 1.64.752 2.782v6.5h-1.204v-6.186c0-.967-.173-1.737-.519-2.309-.378-.545-.985-.824-1.821-.837-1.081.026-1.844.422-2.284 1.188a3.788 3.788 0 00-.481 1.18c-.1.44-.151.889-.151 1.343v5.621h-1.205v-7.776M288.748 37.39c.747.416 1.6.63 2.56.642.61 0 1.123-.165 1.544-.496.413-.305.627-.743.64-1.315-.013-.604-.25-1.078-.716-1.421a8.624 8.624 0 00-1.639-.898 10.286 10.286 0 01-.848-.457 7.201 7.201 0 01-.772-.537 2.835 2.835 0 01-.546-.74 2 2 0 01-.208-.935c.013-1.013.345-1.73.997-2.153.635-.415 1.37-.623 2.204-.623.283 0 .65.026 1.101.078.446.077.887.203 1.327.377l-.113 1.092a5.763 5.763 0 00-2.19-.477c-.628 0-1.128.116-1.5.35a1.242 1.242 0 00-.45.507c-.114.208-.171.487-.171.837 0 .209.072.407.217.595.138.176.323.335.556.477.232.137.496.276.791.42.296.136.585.282.868.438.641.279 1.2.652 1.679 1.12.477.467.722 1.115.734 1.938 0 .533-.104.978-.309 1.335-.22.37-.496.67-.828.896a4.325 4.325 0 01-2.295.663c-.946 0-1.862-.16-2.745-.482l.112-1.232M303.657 30.044a5.089 5.089 0 00-2.112-.517c-1.182.013-2.086.403-2.716 1.17-.66.787-.989 1.815-.989 3.083 0 1.183.324 2.176.97 2.975.63.839 1.497 1.265 2.605 1.277.76 0 1.501-.152 2.224-.458l.112 1.172c-.796.25-1.638.37-2.523.357-1.583-.033-2.76-.572-3.533-1.616-.784-1.025-1.176-2.26-1.176-3.707.012-1.608.46-2.89 1.345-3.844.881-.973 2.052-1.466 3.515-1.48.602 0 1.104.046 1.506.136.207.04.387.081.536.125.146.052.256.097.33.136l-.094 1.191M306.101 23.913h1.204v6.492h.039c.27-.57.67-1.04 1.196-1.414.528-.343 1.15-.521 1.865-.534 1.312.013 2.207.412 2.684 1.198.466.797.691 1.838.678 3.122v6.082h-1.204V32.79c0-.448-.026-.873-.076-1.276a2.911 2.911 0 00-.331-1.013c-.307-.637-.953-.96-1.933-.974-1.058.026-1.812.444-2.266 1.257a5.224 5.224 0 00-.652 2.63v5.445h-1.204V23.913M322.721 33.74h-.349c-.528 0-1.057.014-1.585.04a5.574 5.574 0 00-1.511.34c-.453.157-.815.4-1.084.733-.297.338-.444.786-.444 1.346 0 .65.207 1.116.621 1.395.384.293.86.438 1.427.438.71 0 1.27-.145 1.679-.438.404-.28.696-.611.878-.995.188-.417.296-.823.322-1.22.03-.416.046-.758.046-1.024zm.112 3.493h-.037a2.97 2.97 0 01-1.3 1.366 3.857 3.857 0 01-1.828.504c-.685-.013-1.239-.127-1.659-.34-.44-.2-.776-.454-1.008-.758-.41-.66-.601-1.25-.576-1.768 0-.85.199-1.518.595-2.01.39-.493.885-.846 1.49-1.06a8.016 8.016 0 011.967-.437 36.02 36.02 0 012.008-.058h.236v-.52c.039-1.75-.709-2.625-2.246-2.625-1.018-.013-1.984.267-2.896.842v-1.218a7.032 7.032 0 012.892-.694c2.329-.025 3.481 1.235 3.454 3.785v4.486c-.018.772.015 1.483.103 2.131h-1.195v-1.626M327.976 29.77h-1.987V28.7h1.987v-.739c0-.544.025-1.077.076-1.595a3.91 3.91 0 01.292-1.353c.163-.416.425-.743.79-.983.343-.234.825-.35 1.44-.35.206 0 .418.006.638.02.22.038.385.096.499.174l-.075 1.099a1.977 1.977 0 00-.963-.224c-.404 0-.708.095-.916.282a1.605 1.605 0 00-.444.778 4.09 4.09 0 00-.113.975c-.012.357-.019.7-.019 1.03v.887h2.219v1.07h-2.219v9.088h-1.205V29.77M338.017 29.77h-2.238v6.587c0 .468.102.86.31 1.179.19.331.523.496 1.002.496.44 0 .816-.08 1.122-.243l.076 1.034a6.639 6.639 0 01-.601.173c-.27.072-.565.107-.884.107-.528 0-.944-.094-1.252-.283a1.795 1.795 0 01-.668-.74 3.67 3.67 0 01-.253-1.07 13.693 13.693 0 01-.058-1.303V29.77h-1.929V28.7h1.93V26.25l1.205-.438v2.89h2.238v1.07"/></g></svg>
