<svg xmlns="http://www.w3.org/2000/svg" viewBox="0 0 768 250">
  <defs/>
  <g fill="#d70751">
    <path d="M73.03 135.338l-3.514.222c-3.413 4.27-7.353 7.988-9.596 12.867 4.832-4.374 6.577-7.125 13.11-13.089M75.298 142.654c1.39-2.148 3.334-3.713 5.23-5.402-3.576 2.084-6.315 5.126-9.156 8.028l3.926-2.626"/>
    <path d="M155.797 203.408c-7.976 2.303-28.475 10.778-36.132 10.522l-3.453-3.082c-7.925-1.222-4.248 1.402-10.465.664-6.566-3.39-20.377-10.15-22.417-12.92-.736-2.217 3.628.704 4.987.885-7.292-4.911-5.749 4.239-12.243-4.458l.639-.462c-19.777-13.833-2.237-46.466 31.914-59.173-2.332.324-1.939-.282-3.026-.569 16.216-.797 11.022-3.152 26.39-7.193 7.522-2.487 5.526-4.945 7.864-5.655-8.745.014-11.344-.713-22.806 3.357-33.928 4.555-44.136 18.866-54.162 41.237-1.264 3.433-2.352 1.474-3.957 2.299 1.187-6.886 4.274-13.698 8.851-19.822-3.328 3.48-6.471 7.117-8.466 11.296.238-6.274 11.618-17.462 11.395-19.822-17.363 15.117-22.322 49.092-8.853 62.808-2.936-7.185-6.115-16.45-5.463-25.52.863-3.97 3.53-9.73 4.642-9.102-1.806 23.843 1.191 29.602 25.542 43.642 6.073 3.607 15.362 6.868 15.999 8.332-4.82-1.221-1.792.875-5.954.053 10.706 2.398 2.936-2.98 17.319.895l-3.257 3.609c7.15-2.859 35.17-6.11 46.688-10.012 4.344 1.091-15.228 10.514-24.323 10.499 10.304.611 23.142-9.225 31.04-10.406-2.27 1.468-4.6 3.246-7.109 4.487 8.236-4.201 27.88-6.704 33.421-7.053.156-1.087-5.018-1.974 5.358-5.12 4.606-1.094 2.788.465 4.055.562.246-.884 3.045-3.76 9.345-6.675 1.898.464-3.262 3.377-3.064 4.625 5.075-2.126 8.685-4.48 12.775-5.581 7.395-5.677-1.598-.938 2.255-4.992 12.402-7.195 4.294 2.258 10.696 1.133-7.648 8.063-21.488 15.07-27.164 18.12 7.164-3.046 13.848-6.72 20.146-10.737-.243 1.926 14.58-6.705 5.49 1.026 21.28-11.194 66.525-21.59 70.937-40.15-1.426 2.49-3.208 5.636-3.946 4.862 2.763-9.381 3.71-8.097 5.677-9.84.807-7.265-2.74-6.834-4.03-11.176 3.312-14.163-2.696-20.288-1.918-32.744l-2.661 1.234c.295-8.898-4.6-9.112-6.542-18.151.3-.655 2.798 2.345 4.256 4.97-4.042-7.504-.846-7.919-5.773-15.014 2.25 1.482 4.015 3.215 6.074 4.884-2.755-6.254-9.893-14.096-5.311-12.28-9.264-8.991-23.66-25.484-38.953-32.907l2.474-.983c-8.49-3.024-27.705-15.555-36.953-14.59l-.809-1.182c-5.865-1.201-12.081-1.37-17.905-2.026-7.716-1.564-4.229-4.095-5.091-3.373-17.62-2.457-31.639-2.345-43.19-2.382-3.842 3.543-20.79 5.337-34.411 9.6C42.48 48.104-2.088 88.516.075 152.068c2.432 9.198 14.867 16.385 22.116 22.33-6.357-9.525-2.464-5.523-9.768-14.084-4.317-6.567-3.462-9.364.033-15.923l-3.583 3.155c.624-11.275 3.176-7.272 3.314-16.353l4.2 1.33c-.888-3.378-2.599-10.427.375-12.806l-1.471-3.57c4.802-5.955 6.139-13.079 9.763-13.814l-2.898-.537c2.226-2.008 18.151-22.041 15.951-13.19 1.022-1.8 1.311-3.922 4.982-7.075l2.657 1.012c4.285-5.073 10.352-9.975 12.827-10.347-2.43 2.746-2.53 4.248-2.585 5.725 23.934-16.162-2.012-10.133 21.718-23.793l.671 1.44c1.633-1.65 3.584-2.902 5.424-4.362 2.62-.43 5.24-.862 7.861-1.294 6.743-8.965 41.202-6.407 57.858-9.591 6.868-1.026 15.69 2.066 28.1 2.962l-.353-2.378c10.532 2.045 44.945 15.53 46.954 25.32 8.476 2.834-.301-.916 1.093-2.247 15.978 6.898 13.485 10.977 18.152 17.186 7.786 5.992-4.275-5.758.955-3.308 8.384 11.658 11.95 6.731 19.828 22.713-.55 2.038-3.268-3.57-5.315-4.63 9.917 8.963 22.148 37.527 19.347 54.395-3.374 19.59-55.564 32.134-81.842 39.647l.034.937c-10.714 2.246-46.549 19.28-58.882 19.014"/>
    <path d="M190.576 109.379c4.41-4.293 1.418 3.055-3.387 9.614a81.913 81.913 0 01-7.93.591c4.397-2.668 8.017-6.247 11.317-10.205M174.016 124.071c-5.884 2.128-11.943 3.154-17.705 2.47 4.147.338 8.142-.801 12.3-1.777 10.154-9.04-3.829-2.239-8.35-2.423 18.401-7.55 9.447.956 13.755 1.73M150.03 126.496c-11.092.617-7.549-2.27-3.315-3.203.587 1.152 7.792 2.148 3.314 3.203M263.841 55.09c14.245 9.043 12.18 22.463 11.316 5.362-10.928-17.212-5.849-1.054-11.316-5.363M194.787 24.872c12.927 4.219 20.681 4.974 28.174 6.584-14.878-11.63-18.054-5.36-28.174-6.584"/>
  </g>
  <g fill="#d70a53" font-family="LaudatioC" font-size="8" font-weight="700">
    <path d="M371.463 99.376c-1.238 3.945-2.012 11.14-2.322 21.584-.05 2.495-.077 10.212-.077 23.15 0 7.137.31 12.94.929 17.407-2.064-.348-3.663-.522-4.798-.522-1.394 0-2.864.174-4.412.522-2.528-5.164-5.959-11.604-10.293-19.321l-10.525-18.8-4.488-7.658c-1.754-3.017-3.044-5.686-3.87-8.007.568 5.106.903 11.111 1.006 18.016-.05-2.205-.077 3.8-.077 18.015 0 8.066.645 14.013 1.935 17.842-2.27-.464-4.024-.696-5.263-.696-1.29 0-3.121.232-5.494.696 1.547-4.7 2.321-14.302 2.321-28.808 0-9.573-.18-17-.541-22.28-.207-2.901-.413-4.903-.62-6.005-.464-2.031-1.29-3.8-2.476-5.31 2.528.349 4.798.523 6.81.523 2.786 0 5.366-.174 7.74-.522a93.275 93.275 0 005.958 13.229l12.46 22.89a518.272 518.272 0 004.256 7.136c1.651 2.901 2.786 5.454 3.406 7.659-.104-1.625-.155-10.009-.155-25.153 0-13.577-.774-22.106-2.322-25.587 1.29.232 3.225.348 5.804.348 1.187 0 2.89-.116 5.108-.348M410.63 132.187a62.16 62.16 0 01-.232 5.135h-27.937c.825 12.359 6.036 18.538 15.633 18.538 4.798 0 8.538-1.625 11.221-4.874a40.011 40.011 0 00-1.625 8.878 35.237 35.237 0 01-10.99 1.74c-7.016 0-12.537-2.205-16.56-6.614-4.025-4.41-6.037-10.56-6.037-18.451 0-7.427 1.573-13.287 4.72-17.58 3.457-4.643 8.41-6.963 14.86-6.964 5.52 0 9.725 1.8 12.614 5.397 2.889 3.597 4.334 8.529 4.334 14.795m-8.126 0c.051-10.154-3.096-15.23-9.442-15.23-6.552 0-10.112 5.076-10.68 15.23h20.122M522.406 136.278c0 7.6-1.65 13.635-4.953 18.103-3.508 4.815-8.59 7.223-15.245 7.223-6.707 0-11.867-2.234-15.478-6.701-3.457-4.294-5.185-10.241-5.185-17.842 0-7.659 1.676-13.722 5.03-18.19 3.56-4.7 8.693-7.05 15.4-7.05 6.553 0 11.635 2.263 15.246 6.789 3.457 4.352 5.185 10.24 5.185 17.668m-8.203.522c0-12.939-3.921-19.408-11.763-19.408-8.565 0-12.847 6.469-12.847 19.408 0 12.88 4.18 19.321 12.537 19.321 8.049 0 12.073-6.44 12.073-19.321M479.741 112.344c-.877 2.669-1.444 5.599-1.702 8.79-.774-.232-1.47-.348-2.09-.348-3.044 0-5.572 1.595-7.584 4.787-1.857 2.959-2.786 7.542-2.786 13.75v10.706c0 4.293.387 8.152 1.16 11.575-2.32-.406-3.92-.61-4.797-.61-.826 0-2.503.204-5.03.61.722-3.075 1.083-7.224 1.083-12.445v-22.02c0-6.092-.98-10.444-2.941-13.055a31.547 31.547 0 0010.835-2.437c-.155 3.54-.233 5.948-.233 7.224v5.744c3.148-7.775 7.842-11.865 14.085-12.271M451.578 161.343a21.447 21.447 0 00-4.72-.522c-1.187 0-2.916.174-5.186.522l-.077-10.444c-2.631 7.137-7.12 10.705-13.466 10.705-8.203 0-12.305-4.555-12.305-13.664v-21.758c0-5.976-.851-10.096-2.554-12.359 4.902 0 8.539-.841 10.912-2.524-.567 2.38-.851 5.657-.851 9.835v24.021c0 6.266 2.554 9.4 7.662 9.4 6.913 0 10.37-5.89 10.37-17.668v-9.922c0-6.904-.826-11.285-2.477-13.142 4.23 0 7.894-.841 10.99-2.524-.62 3.192-.93 7.05-.93 11.576v24.282c0 7.078.878 11.807 2.632 14.186" style="line-height:700%;-inkscape-font-specification:'LaudatioC Bold';text-align:start"/>
  </g>
  <path d="M590.7 130.302c.152-7.68 1.832-14.637 8.704-14.637 7.636 0 8.247 7.972 8.094 14.637H590.7zm26.572 1.015c0-11.013-2.29-21.738-16.8-21.738-20.158 0-20.158 21.158-20.158 25.65 0 18.84 9.01 26.375 23.977 26.375 6.719 0 9.926-1.013 11.758-1.45-.152-3.332.459-5.507.917-8.403-1.985 1.304-4.582 2.896-10.537 2.896-15.271 0-15.578-13.331-15.578-17.823h26.115l.306-5.507zM649.189 135.23c0 8.694-1.68 20.434-12.981 20.434-1.68 0-3.665-.292-4.886-.58-.153-3.333-.153-9.13-.153-15.941 0-7.971.763-12.173 1.527-14.202 2.138-6.667 6.72-6.667 7.636-6.667 7.33 0 8.857 9.71 8.857 16.955zm-28.252 10.143c0 6.957 0 10.87-1.07 13.912 3.972 1.449 9.01 2.319 14.967 2.319 3.817 0 14.965 0 20.922-11.738 2.902-5.362 3.817-12.608 3.817-18.115 0-3.334-.305-10.725-3.206-15.361-2.749-4.492-7.178-6.666-11.912-6.666-9.468 0-12.217 7.39-13.591 11.302 0-4.782 0-21.446.916-29.85-6.414 2.752-10.384 3.187-14.66 3.622 3.817 1.449 3.817 7.68 3.817 27.679v22.896zM678.51 161.025c-1.986-.291-3.36-.434-6.262-.434-3.054 0-5.192.143-7.482.434.916-1.74 1.374-2.608 1.68-8.695.305-8.26.457-30.433-.154-35.215-.61-3.479-1.373-4.058-2.748-4.927 7.941-.725 10.232-1.304 14.05-3.043-.916 4.057-.916 6.232-.916 12.463-.154 32.171-.306 35.649 1.832 39.417zM709.968 134.65c-.151 5.797-.304 9.999-1.984 13.187-1.986 4.202-5.499 5.362-8.094 5.362-5.803 0-7.026-4.636-7.026-9.13 0-8.84 8.248-9.42 11.913-9.42h5.191zm-27.03 11.448c0 5.797 1.833 11.74 7.331 14.202 2.595 1.015 5.039 1.015 5.802 1.015 9.01 0 12.064-6.231 13.897-10.145-.152 4.058 0 6.522.305 9.855 1.834-.146 3.513-.291 6.568-.291 1.527 0 3.207.145 4.886.29-1.069-1.594-1.679-2.463-1.985-6.231-.153-3.478-.153-6.955-.153-12.028v-18.984c0-7.1-1.984-14.057-16.646-14.057-9.772 0-15.424 2.754-18.325 4.203 1.222 2.03 2.139 3.767 3.054 7.825 3.817-3.188 8.858-4.927 13.897-4.927 8.247 0 8.247 5.218 8.247 12.463-1.833-.146-3.514-.291-6.109-.291-12.522 0-20.77 4.64-20.77 17.101zM766.626 151.75c0 3.189 0 6.52 1.374 9.275-2.138-.146-3.36-.434-7.331-.434-2.443 0-3.664.143-5.496.434.305-1.16.456-1.74.763-3.333.306-2.029.457-9.274.457-11.74v-10.144c0-4.346 0-10.724-.305-12.896-.152-1.594-.764-5.943-6.413-5.943-5.652 0-7.484 3.914-8.094 7.103-.764 3.333-.764 6.81-.764 20.577 0 12.028 0 13.043 1.069 16.376-1.68-.145-3.817-.434-6.718-.434-2.445 0-3.973.143-5.956.434.764-1.45 1.068-2.32 1.373-7.536.154-5.07.61-30.287-.305-36.228-.61-3.624-1.528-4.493-2.596-5.362 7.94-.435 10.538-1.595 12.98-2.9v10c1.222-2.897 3.664-9.42 13.439-9.42 12.37 0 12.37 8.552 12.523 14.058v28.114z" class="st1"/>
  <path fill="#d70751" d="M679.274 95.957l-8.093 7.681-8.095-7.68 8.095-7.682 8.093 7.681z" class="st0"/>
  <path d="M577.02 129.695c0 21.353-10.241 32.029-30.724 32.029-1.29 0-3.198-.06-5.726-.175-2.477-.115-4.36-.174-5.65-.174-.464 0-2.734.116-6.81.349 1.65-2.38 2.476-12.04 2.476-28.982 0-10.502-.026-16.101-.077-16.798-.206-6.672-.903-12.126-2.09-16.362 2.374.522 5.16.783 8.359.783 1.6 0 3.973-.115 7.12-.348 3.199-.29 5.598-.435 7.197-.435 9.132 0 15.736 2.437 19.812 7.31 4.076 4.875 6.114 12.475 6.114 22.803m-9.132.174c0-16.246-6.553-24.369-19.657-24.369-1.961 0-5.134.29-9.52.87a492.14 492.14 0 00-.386 18.974V149.8c0 2.669.8 4.41 2.399 5.222 1.032.522 2.889.783 5.572.783 7.584 0 13.13-2.234 16.639-6.701 3.302-4.178 4.952-10.59 4.953-19.235" font-family="LaudatioC" font-size="5.939" font-weight="700" style="line-height:700%;-inkscape-font-specification:'LaudatioC Bold';text-align:start"/>
</svg>
