<svg xmlns="http://www.w3.org/2000/svg" xmlns:xlink="http://www.w3.org/1999/xlink" viewBox="0 0 768 250">
  <defs/>
  <defs>
    <linearGradient id="a">
      <stop offset="0" stop-color="#ffe805"/>
      <stop offset="1" stop-color="#ff0010"/>
    </linearGradient>
    <linearGradient id="b" x1="580.24" x2="563.804" y1="393.198" y2="420.323" gradientTransform="matrix(1.15177 0 0 1.15177 -86.03 -62.6)" gradientUnits="userSpaceOnUse" xlink:href="#a"/>
  </defs>
  <path fill="url(#b)" d="M546.584 445.57c-.91-2.37 2.142-10.254 8.31-21.473 13.65-24.828 29.926-47.923 32.182-45.667 1.06 1.06-3.119 14.647-7.538 24.508-7.624 17.012-22.126 37.88-29.46 42.395-2.706 1.666-2.94 1.681-3.494.236z" opacity=".725" transform="translate(-133.767 -42.028) scale(.46255)"/>
  <path d="M51.34 248.881c-1.1-1.78-.592-4.105 1.127-5.168 2.105-1.3 2.164-3.093.183-5.48-1.62-1.953-3.336-14.058-3.814-26.902l-.868-23.353-6.607.918c-8.442 1.174-8.315-1.448.714-14.734l7.32-10.774-8.715-6.206c-10.422-7.421-16.703-26.114-11.832-35.216 2.578-4.816 1.777-7-4.582-12.492C7.574 95.057-2.253 62.36.442 30.21 2.42 6.618 5.955.857 17.694 2.093l8.402.884.939 29.365c.837 26.199 2.084 31.978 11.559 53.592 5.84 13.324 9.487 24.226 8.102 24.226-1.384 0-7.28-11.902-13.102-26.45-9.412-23.514-10.587-29.378-10.587-52.857V4.445h-7.083c-5.902 0-7.388 1.836-8.913 11.012-6.23 37.48.988 71.576 18.954 89.542 9.903 9.903 10.96 12.275 8.807 19.78-3.42 11.926 10.158 33.386 23.943 37.842 10.618 3.433 28.851.653 36.307-5.535 10.607-8.803 12.815-41.053 2.81-41.053-5.745 0-5.506-2.51 1.82-19.072l6.17-13.945L99.53 63.85c-8.1-24.672-20.1-49.117-27.322-55.652l-5.683-5.143-4.14 5.66c-9.805 13.41-3.345 39.393 16.662 67.012 5.326 7.352 8.564 15.471 8.564 21.474v9.653l-11.012-1.7c-14.768-2.278-15.825-3.804-2.636-3.804h10.823l-1.868-8.075c-1.027-4.442-5.807-13.114-10.621-19.273-9.26-11.845-19.932-38.462-19.913-49.662.006-3.674 2.655-11.018 5.888-16.32 4.895-8.028 6.801-9.144 11.412-6.676C77.359 5.45 92.219 28.619 99.275 47.48c9.359 25.012 10.447 37.716 4.385 51.16l-5.294 11.74 6.368 4.462c7.742 5.422 8.276 16.863 1.569 33.625-3.346 8.361-3.868 12.93-1.724 15.073 4.394 4.394 8.195 1.174 19.529-16.544 12.72-19.885 17.967-23.577 15.422-10.854-2.702 13.511-19.857 37.153-26.959 37.153-7.484 0-9.349 14.641-4.205 33.013 3.395 12.125 3.213 13.092-3.345 17.801-3.814 2.739-8.961 5.878-11.438 6.976-2.713 1.202-.417 2.06 5.774 2.157 7.949.125 9.28-.53 5.873-2.888-3.633-2.515-3.376-2.886 1.468-2.117 9.813 1.558 3.705 6.682-8.81 7.39-17.848 1.01-28.999 4.187-32.795 9.346-1.887 2.564-4.42 3.673-5.628 2.465-1.21-1.21-.656-2.198 1.228-2.198s3.426-1.322 3.426-2.937c0-5.453-6.044-2.985-8.42 3.439-1.447 3.908-3.133 5.123-4.359 3.14zm32.896-15.054c2.181-1.382 6.985-9.942 10.675-19.021 5.455-13.422 6.423-20.079 5.177-35.608l-1.534-19.1-10.088 6.234c-7.958 4.92-12.832 5.859-23.09 4.453-9.238-1.266-13.083-.736-13.28 1.832-.77 10.103.981 59.64 2.177 61.576 1.88 3.041 25.033 2.758 29.963-.366zm-21.14-11.357c-.752-1.218 2.678-2.21 7.623-2.203 5.094.007 9.601-1.772 10.398-4.104 1.025-2.996-.346-3.657-5.039-2.43-9.821 2.568-10.74-5.247-1.858-15.803 8.698-10.338 7.809-15.251-1.274-7.032-3.65 3.303-5.89 3.975-5.89 1.766 0-1.96-1.322-2.748-2.937-1.75-1.615.998-2.937.348-2.937-1.445 0-4.233 20.023-12.602 25.303-10.576 6.481 2.487 4.758 9.556-5.051 20.729l-9.114 10.38h9.114c10.488 0 12.492 6.794 3.433 11.642-6.613 3.54-19.784 4.04-21.77.826zM46.5 178.82c0-.807-1.322-.651-2.937.347-1.615.998-2.936 2.476-2.936 3.283 0 .808 1.321.652 2.936-.346 1.615-.999 2.937-2.476 2.937-3.284zm86.607-32.328c2.71-5.71 4.27-11.039 3.466-11.842-1.53-1.53-16.66 22.79-16.66 26.781 0 4.662 8.414-4.865 13.194-14.94zM62.87 139.88c-.91-1.473.32-3.435 2.734-4.36 2.413-.927 4.388-.483 4.388.986 0 3.981-5.219 6.453-7.122 3.374zm-4.624-16.507c0-.807.66-1.468 1.468-1.468.808 0 1.468.66 1.468 1.468 0 .808-.66 1.468-1.468 1.468-.808 0-1.468-.66-1.468-1.468zm17.619 0c0-.807.66-1.468 1.468-1.468.808 0 1.468.66 1.468 1.468 0 .808-.66 1.468-1.468 1.468-.807 0-1.468-.66-1.468-1.468zM53.168 105.45c.976-.976 3.509-1.08 5.628-.232 2.343.938 1.647 1.634-1.774 1.775-3.095.127-4.83-.567-3.854-1.543z"/>
  <g fill="#232323" aria-label="NiBabel">
    <path d="M267.006 88.39q-.769 1.281-1.153 2.691-.257 1.41-.385 2.82h-.897q-1.026 0-1.795-.256-.769-.385-1.794-.641.513 4.87.64 9.87.129 4.998.129 9.868 0 6.153-.128 12.305-.128 6.024-.128 12.177 0 2.948-.385 5.896-.256 2.82-1.538 5.511.256 2.18.385 4.23.128 1.922.128 4.101 0 6.025-.77 12.049-.64 5.896-1.666 11.792-.384 2.307-.769 4.742-.256 2.307-.897 4.486-.256.641-.769 1.282-.384.64-.64 1.282-1.539 3.332-3.461 6.665-1.795 3.204-4.358 5.896-1.923.128-3.717 1.025-1.795.897-3.333.897-1.41 0-2.307-1.41l-1.282.513q-.64.257-1.41.385-4.358-1.795-8.331-4.358-3.845-2.564-6.409-6.665h-.512q-1.154 0-1.667-.513-.64-.64-1.41-1.538-.64-1.025-1.153-1.794-1.538-2.436-3.333-4.871-1.794-2.435-4.23-4.102-1.025-3.845-3.076-6.536-2.05-2.82-4.23-6.025-1.666-6.408-6.152-11.92.641-.64.641-.897 0-.64-.512-1.025-.385-.513-.385-1.026t.256-.769q-1.666-1.794-2.82-3.973l-2.05-4.615q-.897-2.307-2.051-4.614-1.025-2.307-2.563-4.23-1.41.898-1.795 2.18-.256 1.281-.256 2.691v2.05q.128 1.026.128 2.052 0 2.563-.641 4.998-.513 2.436-.769 5-.128 1.794-.128 3.973.128 2.179-.128 4.358-.129 2.178-.641 4.23-.513 2.05-1.795 3.46-.769 7.306-1.922 14.612-1.154 7.306-2.18 14.612-.256 1.281-.512 3.204-.256 1.923-.64 3.845-.257 2.05-.513 3.845-.129 1.923-.129 3.077 0 1.281.641 2.435.641 1.282.641 2.435 0 .897-.64 1.026-.513.256-.642 1.025.898 2.82.898 6.409 0 1.025-.129 2.05-.128 1.154-.384 2.18-.256.64-.897 1.153-.641.64-.641 1.153t.512.77q-.769.769-1.922 1.025-1.154.256-1.666 1.41-1.282-1.026-2.564-1.923-1.282-.769-2.435-1.794l-.385-.128q-.897 0-1.538.512-.512.641-1.41.641-.256 0-.512-.128h-.385l-.769-3.333q-.384-1.666-1.025-3.076 1.025-2.691 1.281-6.152.385-3.333.77-6.793.384-3.461 1.153-6.665.769-3.076 2.82-5.384 0-1.025-.77-1.41-.64-.384-.64-1.666 0-.256.128-.897.256-.64.385-1.41.256-.769.384-1.41l.385-1.153q1.025-5 1.538-10.254.64-5.255 3.204-9.741-.128-.513-.128-1.539 0-2.179.384-4.23.513-2.05.513-4.229 0-1.794-.384-3.333.384-1.41 1.025-2.691.769-1.41.769-2.82 0-1.282-.897-1.794.64-.513.769-1.154.256-.64.256-1.282.128-.64.257-1.153.256-.641 1.025-1.026-.128-1.281-.256-2.435v-2.435q0-4.743.512-9.357.513-4.742.513-9.613 0-4.743-.77-9.229l1.41-2.82q-1.28-1.025-1.665-3.332t-.513-4.999q-.128-2.691-.513-5.255-.256-2.691-1.41-4.358v-1.153q0-2.051-.256-3.974-.256-1.922-.256-3.845V86.98q.64-.257.897-.898.384-.64.513-1.281h.512q1.538 0 3.076-.257 1.538-.256 3.077-.256h1.666q1.538 1.153 2.691 2.692 1.154 1.538 2.82 2.82v2.306q1.154 1.539 1.795 3.333.64 1.794 1.281 3.717.77 1.923 1.539 3.717.769 1.795 2.178 3.076-.256 1.282-.256 2.051 0 1.666.256 3.333.385 1.666.513 3.204.513.64.897 1.666.385.897 1.282 1.154.641 4.998 2.564 9.485 2.05 4.486 2.948 9.356 1.025 1.026 1.538 2.564l1.025 2.82q.641 1.41 1.282 2.691.769 1.154 2.179 1.666.769 3.077 1.922 6.153 1.154 3.076 3.59 5.255 0 2.563.768 4.486.898 1.794 1.923 3.46 1.153 1.539 2.05 3.077.898 1.538 1.154 3.332 1.795 2.692 4.102 5 2.435 2.306 4.87 4.485 2.564 2.051 5 4.23 2.435 2.179 4.485 4.614 1.41.128 2.307.641 1.026.385 2.308.641.897-.64 1.41-1.538.64-1.025 1.153-2.05.513-1.026 1.025-1.923.641-1.026 1.539-1.795 0-.256-.129-.384v-.513q0-1.41.385-2.18.513-.896 1.153-1.922v-3.332q1.026-1.923 1.41-4.102.385-2.179.385-4.358 0-1.794-.128-3.589-.128-1.922-.128-3.845 0-1.153.128-2.307.128-1.282.512-2.307.257-.256.898-.769.64-.64.64-.77 0-.64-.384-1.28-.385-.642-.385-1.283 0-.897.77-1.41v-.769q0-.64-.257-1.153-.128-.64-.769-.897.64-.77.897-1.795.257-1.153.257-2.307.128-1.282 0-2.435v-2.18q0-1.153.128-2.434.128-1.282 1.025-2.18-.384-1.537-.512-2.947-.129-1.538-.129-3.077 0-2.691.257-5.383.256-2.692.256-5.511 0-1.026-.128-2.051-.128-1.154-.128-2.18 0-1.024.384-.896.513 0 .513-.641 0-.897-.256-1.795l-.257-1.794q-.256-2.179-.384-4.358-.128-2.307-.128-4.614v-2.82q.128-1.538.512-2.948-.769-1.154-1.025-2.179-.128-1.154-.257-2.05l-.256-1.923q-.128-1.026-.769-2.051-.128-.128-.128-.77 0-1.025.513-1.537-.641-2.18-1.795-4.23-1.025-2.05-1.282-4.486-1.41-.77-2.179-2.435-.64-1.795-.64-3.205 0-1.666.897-3.204.897-1.666 2.82-1.666.769 0 1.41.512.769.385 1.41 1.026.769.512 1.41 1.025.768.385 1.537.385.513 0 1.539-.257 1.41 1.923 2.82 3.59 1.537 1.537 3.076 3.204 0 2.178.769 3.973.769 1.794 1.666 3.46.897 1.539 1.538 3.077.769 1.538.64 3.332.257.898 1.026 1.282.77.385 1.41 1.025z"/>
    <path d="M290.458 189.39q-.64 1.026-1.538 1.923-.897.77-1.666 1.666-.897.385-2.05.385h-2.052q-.897-.128-1.794 0-.77 0-1.282.512-1.025-.256-1.538-.897-.513-.769-1.794-.897-.513-.128-1.026 0-1.922-2.179-3.589-4.614-1.538-2.436-2.948-4.614-.128-4.743-.769-9.613-.128-1.154-.384-2.308-.257-1.153-.385-2.179 0-1.281.128-2.435.257-1.282.385-2.307.513-3.717 1.154-7.306.64-3.589 1.153-7.306.513-3.332.513-6.921 0-3.717-1.154-6.922l-.128-.64q.256-1.026.513-1.667.384-.769.512-1.666.257-1.41-.64-2.05.384-1.026 1.281-1.283.898-.384 1.026-1.538.128-.512 0-1.025 1.025-.385 2.05-.64 1.154-.385 2.18-.129 1.666.256 2.947 1.154 1.282.769 2.436 1.794 2.05 6.152 1.666 13.074-.384 6.793-1.282 13.714-.897 6.922-1.153 13.587-.257 6.537 2.05 12.176l.257.128q.64.129 1.025-.384.385-.641 1.026-.513.512.257.64.257.513 2.563 1.667 4.87 1.153 2.307 2.563 4.614z"/>
    <path d="M445.88 185.16q0 1.667-.897 3.077-.898 1.282-.513 3.076-.513.897-1.41 1.41-.769.513-.513 1.923-2.691 1.41-4.998 3.588-2.18 2.051-4.743 3.974-1.538 1.153-2.692 1.666-1.025.385-2.563 1.282l-3.204 2.05q-2.18 1.154-4.486 2.308-2.18 1.153-3.974 2.948-2.691.128-5.511 1.41-2.82 1.41-5.384 2.435-1.025.384-2.05.513-1.026.256-2.051.769l-2.05.897q-1.795.897-4.23 1.794-2.436 1.026-4.359 1.026-1.153.512-1.922 1.794-4.23 1.41-8.716 2.18-4.486.768-8.716 2.434-1.41.641-2.948 1.667-1.41 1.153-3.076 1.025-.385.64-.513 1.538-.128.897-.384 1.795h-.385q-.512 0-.512-.513.128-.513-.385-.513-.384 0-.513.128-1.666.385-3.204.641-1.41.257-3.204.257-1.026 0-3.333-.257-2.179-.256-3.204-.64-.77-.385-1.282-1.41-.513-1.026-1.025-2.18-.385-1.153-.77-2.435-.256-1.153-.512-1.922.384-1.41 1.282-2.308.897-.897 1.41-2.307 1.153-.128 2.307-.384 1.153-.257 2.307-.128l7.947-2.308q4.101-1.025 8.075-2.178 3.973-1.154 7.818-2.564 3.845-1.41 7.434-3.46h2.692q2.307-1.282 5.127-2.18 2.82-.897 4.614-2.948 4.23-.897 8.844-2.435 4.614-1.538 7.69-4.87 1.923-.257 3.333-.898 1.41-.769 2.692-1.538l2.563-1.666q1.282-.897 2.948-1.41 1.026-1.025 1.923-2.179t2.179-1.923q-.385-2.05-2.051-3.076-1.666-1.025-2.948-2.435h-2.82q-3.332-2.05-7.178-3.076-3.717-1.154-7.434-2.435-.256-.129-.64-.129-.898 0-1.154.641-.128.641-1.025.513-1.154-.77-2.436-.897-1.282-.257-2.691-.257-1.795 0-3.59.257-1.666.128-3.46.128-.897 0-1.794-.128-.898-.128-1.795-.641h-1.666q-2.692 0-5.383.256-2.564.128-5.127.128h-2.692q-1.282-.128-2.564-.384-2.691 1.282-5.767 1.794-3.077.513-6.409.77l-6.409.512q-3.204.128-6.152.64-.77-.127-1.538-.127-.641-.128-1.282-.128-.64 0-1.41.128-.64 0-1.282.128-1.666-1.795-4.101-2.564-2.307-.897-4.614-1.153-1.795-2.18-2.692-4.358-.769-2.307-1.025-5.127h.512q.898 0 .77-.897 0-.897.64-1.538.641-.77 1.666-1.026 1.154-.384 2.18-.769 1.025-.384 1.922-.897 1.025-.64 1.538-1.923h1.666q.513 0 1.026.129.64 0 1.025.384.513-.513 1.282-.897.769-.385 1.41-.77.769-.384 1.282-.896.512-.513.64-1.538.129.384.641.384.513 0 .898-.256.512-.257 1.153-.128.641-1.795 2.179-1.923 1.538-.128 2.82-.897.897-.513 1.666-1.154.77-.769 1.666-1.41l7.69-5.896 11.793-8.972q5.896-4.486 12.048-8.331.256-.77.77-1.154l1.025-.769q.512-.513.769-1.025.384-.513.256-1.538 1.794-.385 2.692-1.41 1.025-1.026 1.794-2.18.77-1.28 1.538-2.435.897-1.281 2.307-1.922-.128-.385-.128-1.154 0-1.025.128-2.05.257-1.026 1.026-1.795-1.154-2.692-3.974-3.845-2.82-1.282-5.383-2.18h-.385q-.64 0-.769.642 0 .513-.64.769-2.051-.513-4.615-.513-2.563 0-5.127.385-2.435.384-4.998.128-.385.513-.898 1.025-.384.513-1.025.897-2.692.129-5.383.77l-5.384 1.281-2.948.641q-.64.256-.897.897-.256.641-.384 1.41-.77-.128-1.026-.64-.128-.513-.897-.77-2.948 1.795-6.409 2.948-3.332 1.154-6.024 3.59-.897-1.026-2.563-1.026-1.41 0-3.077.897-1.666.897-2.05 2.307-1.282-.256-1.923-.256-1.41 0-2.435.769-.897.769-1.795 1.794-.897.898-1.922 1.795-1.026.897-2.564 1.025v1.41q.128.64.128 1.41 0 5.768-.64 11.536-.641 5.64-.641 11.407 0 1.282.128 2.564.128 1.153.128 2.563 0 .385-.64 1.666l-.77 1.923q.513 1.41.385 2.82 0 1.41.64 2.691-1.153 1.026-1.153 2.82v1.538q.128.77.128 1.538v1.538q-.384 2.564-.513 5.256-.128 2.563-.128 5.126v3.974q.128 2.692.385 6.152.256 3.333.769 6.922.513 3.588 1.282 6.665.897 2.948 2.179 4.87 1.281 1.923 3.076 1.923.384 0 .897-.128.64-.128.64-.641t-.256-.897q-.128-.385-.128-.898l.128-.256q1.026.513 2.18.64 1.281.13 2.563.257 1.282.128 2.435.385 1.154.384 2.051 1.41-.513 1.025-.513 2.179 0 1.538.77 2.82.768 1.41 1.025 2.82-2.436.768-4.486 1.666-1.923 1.025-3.846 1.794-1.922.897-4.101 1.538-2.18.77-4.999 1.025-1.794-1.153-3.076-2.05-1.282-.898-3.46-1.154-3.333-4.486-5.512-10.126-2.18-5.511-3.461-11.535-1.154-6.024-1.666-12.049-.385-6.152-.385-11.535 0-5.896.385-11.664.512-5.896 1.281-11.792l.513-3.589q.257-1.923.513-3.717.256-.64.384-1.41.257-.897.257-1.538 0-2.179-.128-4.358-.129-2.179-.129-4.23 0-3.204.385-6.536.128-.641.384-1.667.385-1.025.385-1.794 0-1.026-.513-1.41-.512-.385-.897-1.282.385-1.282.64-2.435.257-1.282.257-2.564 0-2.435-.897-4.23.64-3.332 1.923-6.536 1.281-3.205 4.486-4.87 2.563.127 5.127.512 2.691.384 4.614 2.179.897-.513 2.05-.641l2.436-.256q1.282-.129 2.307-.385 1.026-.384 1.795-1.41 2.563-.512 5.511-1.41 2.948-1.025 5.127-2.307h2.82q.897-.64 2.05-.897l2.436-.64q1.282-.385 2.307-.77 1.154-.384 1.795-1.282h.512q2.948 0 5.768-1.281 2.82-1.282 5.512-2.308.64-.256 1.922-.897 1.41-.64 1.923-.64 1.794-.257 3.589-.257 1.794-.128 3.588-.513 4.102-.64 8.075-1.41 4.102-.897 8.204-.897 1.41 0 2.563.128 1.282 0 2.692.129.128.512.64.897.513.256.898.512.512.257.897.77.384.384.256 1.153.257.256.513.256.385 0 .64-.384.385-.385 1.026-.385h.641q1.666 1.795 3.204 3.461 1.667 1.538 4.102 2.564 1.025 3.845 2.435 7.562 1.41 3.717 1.41 7.947 0 2.563-.769 4.998-1.794.898-2.563 2.82-.77 1.923-1.41 3.717-3.59 1.795-6.024 4.743-2.436 2.948-5 5.896h-2.05q-.513 0-.769.384l-1.154 1.282q-1.153 1.025-2.563 2.05-1.282 1.026-1.923 2.692-3.973 2.18-7.69 4.87-3.589 2.693-6.921 5.64-1.41 1.154-2.82 2.692-1.41 1.41-2.82 2.436-.77.64-1.795 1.153-.897.385-1.666 1.025-1.666 1.282-3.076 2.692-1.41 1.282-2.948 2.435 5.768-.256 11.664-.256 5.896-.128 11.664-.256 2.948 0 5.768-.128 2.82-.257 5.767-.257.513 0 .898.257.384.128.897.256 2.179.384 3.845.897 6.152 1.154 12.305 2.05 6.152.898 12.048 2.949 1.666.64 2.435 1.41.898.769 3.076.384 1.795 1.795 3.846 2.82 2.179 1.026 4.358 1.795 1.666 2.563 3.076 4.87 1.538 2.307 1.538 5.512z"/>
    <path d="M538.163 197.594q-.385 1.794-1.667 2.948-1.153 1.025-2.82 1.666-1.666.64-3.46.897-1.666.128-3.076.128h-1.282q-.513-.128-1.154-.128-.64 0-.64.64 0 .642-.641.898-.641-.256-1.282-.384-.641-.129-1.282-.129-.897 0-1.794.129-.77.128-1.538.128-1.026 0-1.538-.257l-.77-.512q-.256-.385-.64-.77-.257-.384-.898-.64-.897-.385-1.538-.128-.512.256-1.666-.77-1.538-1.281-2.692-3.076-1.025-1.922-2.05-3.973-1.026-2.05-2.18-4.102-1.153-2.05-2.691-3.588h-1.025q-2.308 0-3.205 1.922-.64-.384-1.281-.897-.641-.64-1.41-1.025-2.948.897-6.153 1.538-3.204.64-6.408.64h-1.795q-.769 0-1.666-.256-1.282.513-2.307 1.282-1.026.64-2.307.64-.77 0-1.795-.512-.769 0-.769.641.128.64-.769.64h-1.153q-1.795 0-3.59.129-1.666.128-3.46.128-2.435 0-4.999-.64-.64.384-1.41.384-.512.256-.769.897l-.512 1.025q-.257.385-.77.77-.384.256-1.153.128-.256 1.538-1.282 2.435-1.025.897-1.025 2.692-1.41.769-2.307 1.922-.898 1.154-1.795 2.436-.897 1.281-1.922 2.435-.898 1.153-2.307 1.794-.641.77-.385 2.436-1.41 1.153-3.46 2.05-2.051.898-3.846.898-3.717 0-5.127-3.974 0-1.282.257-2.691.128-1.539.512-2.82.385-1.41 1.154-2.436.769-1.153 2.179-1.666 0-1.153-.77-1.538-.768-.513-.64-1.666 3.46-1.666 6.024-4.358 2.563-2.692 4.614-5.64l4.358-6.152q2.18-3.076 4.87-5.512v-2.691q3.846-4.102 5-9.229 1.41-.256 1.794-1.281.513-1.026.513-2.436.64 0 .769-.512.256-.641 1.153-.385 1.154-3.076 2.564-5.64l2.82-5.127q1.41-2.691 2.435-5.511 1.153-2.82 1.666-6.28 1.795-.129 1.923-1.667.256-1.666.512-2.948 1.923-1.794 2.82-4.23 1.026-2.435 1.795-4.998.769-2.692 1.666-5.255 1.025-2.692 2.82-4.743v-.384q0-.641-.513-.77-.513-.256-.513-.897.129-.128.129-.256 1.538-.64 2.307-2.05.769-1.539 2.307-2.18 2.691 2.18 4.742 2.692 2.051.384 5.384.64 1.666 1.795 1.794 4.359.256 2.435.897 4.87 1.026 4.102 2.18 8.075 1.28 3.845 1.922 7.947.384 2.435 1.41 4.614 1.025 2.18 1.41 4.486.256 1.795 0 4.102-.257 2.179.512 3.845l.897 2.05q.641 1.41 1.026 2.949.513 1.538.897 3.076 1.025 3.845 1.795 8.331.897 4.358 2.691 7.947.641 1.282 1.923 1.795 1.41.512 3.076.769 1.666.128 3.204.128 1.667-.128 2.82-.128h1.282q.769 0 1.538.256.513 1.025.513 1.794 0 1.538-1.026 2.436-1.025.897-1.025 2.05 0 .641.513 1.41-.513-.128-1.539-.128-2.948 0-5.767 1.026 1.025 2.179 2.691 3.717 1.795 1.41 3.717 2.691 1.282-1.025 2.692-1.025 1.538 0 2.82.769 1.41.64 2.948.64 1.153 0 1.666-.384 1.025 1.154 1.666 2.436.641 1.153 1.667 2.179zm-40.119-20.508q-.256-2.18-.897-3.076-.513-1.026-.897-2.436-.513-1.794-.77-3.845-.127-2.05-.512-3.973-.897-4.358-2.05-8.716-1.026-4.358-2.692-8.46.512-.769.512-1.41v-.384q-1.153-1.282-1.666-3.076-.513-1.923-1.025-3.717-.385-1.923-1.154-3.461-.64-1.666-2.179-2.692-.384.77-.384 1.795 0 .897.128 1.666.256.77.256 1.666-1.282.641-1.922 2.051-.513 1.282-1.795 2.05-1.025 4.102-2.948 7.82-1.923 3.588-4.101 7.177-2.051 3.59-3.974 7.306-1.922 3.589-3.076 7.562-1.666 1.154-2.307 2.948-.513 1.795-.513 3.59 1.154.64 2.564.768h2.948q1.41 0 2.691.257 1.282.256 2.307 1.281 1.667-.512 3.59-.64 2.05-.257 3.332-1.154 2.563.897 5.511.897 1.538 0 2.948-.256 1.538-.257 2.948-.641 1.154.256 1.795.897.64.513 1.922.385.641-.513.77-1.026.127-.64.64-1.153z"/>
    <path d="M628.268 116.588q0 1.153-.513 2.179l-.897 1.922q-.385.897-.77 1.923-.384 1.025-.256 2.435-1.794 2.05-3.589 3.974-1.794 1.922-3.204 4.357-1.41-.128-2.179.641-.64.77-1.025 2.051-2.692.897-4.743 2.82-2.05 1.794-3.589 3.973-6.793 2.82-12.689 6.922-5.896 4.101-10.766 9.613 2.307 0 4.486.512 2.307.513 4.486 1.154 2.307.513 4.486 1.025 2.179.385 4.486.129 1.666 1.538 3.717 2.563 2.179 1.025 4.23 1.923 2.179.897 4.101 2.05 2.051 1.154 3.59 2.82 0 .257-.129.513v.384q0 1.026.513 2.051.512.897.512 1.923-.64 1.025-1.153 2.179-.513 1.153-1.282 2.05-.64.898-1.538 1.539-.897.64-2.435.769-.641 2.179-2.051 3.46-1.41 1.154-3.204 2.18-1.667.897-3.333 1.922-1.666.897-2.82 2.435-3.845.897-7.562 2.564-3.589 1.538-6.409 4.486-1.922.256-3.973.64-1.923.257-3.845.257-2.692 0-4.358-1.025-1.667-1.154-1.923-4.102.385-.897 1.154-1.538l1.666-1.282q.897-.64 1.538-1.281.77-.77 1.154-1.795.256 0 .64.128h.77q1.538 0 2.435-.64.897-.641 1.666-1.282.897-.641 1.923-1.154 1.025-.513 2.691-.384.898-1.667 2.692-2.436 1.794-.897 3.717-1.538 1.923-.769 3.589-1.666 1.794-1.025 2.435-2.948-.64-1.025-1.666-1.538-1.025-.641-2.307-1.026l-2.435-.769q-1.154-.384-2.051-.897-1.41.385-2.692.385-2.692 0-5.255-.513-2.564-.513-5.255-.513-2.435 0-4.23.641-.64-.128-1.41-.384l-1.282-.513q-2.948 1.154-6.152 1.154h-8.331q-1.026 0-2.051.256-1.41 2.563-1.41 5.511 0 2.18.641 4.23.64 1.923 1.282 4.102 2.563 2.307 4.742 5.511 2.18 3.076 2.18 6.793 0 .898-.13 1.41-1.28-.897-3.332-.897-1.794 0-3.46.513-1.538.512-3.333.769-1.41-.641-2.948-1.282-1.538-.769-2.948-1.794-1.025-2.18-2.05-4.102-1.026-2.05-2.564-3.845v-.513q0-4.486-.77-8.844-.64-4.358-.64-8.844 0-2.05.128-4.101.257-2.18 1.282-3.974-.385-3.076-.385-6.408 0-6.666.77-13.33.768-6.666.768-13.587 0-1.41-.128-2.82 0-1.41-.128-2.82h-.513q-1.666 0-3.204.513-1.538.385-3.076.897-1.538.513-3.204 1.026-1.667.384-3.333.384-1.025.513-1.666 1.026-.641.512-1.282.897-.64.384-1.41.64-.897.257-2.05.129-1.41.897-2.18 1.41-.897.384-2.435.897-.769.256-1.282.769l-1.025.897q-.513.385-1.154.77-.64.384-1.666.384-.897 0-1.282-.128-.769-.641-1.281-1.538-.641-.898-1.154-1.667-.64-.897-1.282-1.538-.769-.769-1.794-1.153.513-.641.513-1.026-.129-.512-.129-1.153 0-.385.129-.513.64-2.307 2.307-3.589 1.666-1.41 3.717-2.179 2.05-.897 4.23-1.538 2.05-.64 3.845-1.538 4.999.128 9.1-.897 4.102-1.154 8.46-3.205.769.385 1.538.385.64 0 1.281-.128l1.282-.257q1.538-1.281 3.333-1.666 1.794-.384 3.589-.64 1.794-.257 3.46-.513 1.666-.385 2.948-1.41h.513q3.076 0 6.152-1.026 3.205-1.025 6.153-.769 2.563-1.41 4.742-1.794 2.179-.385 4.999-.385.64 0 1.538-.512.897-.641 2.179-.641.256 0 .384.128h.513q1.154 0 1.538-.77.513-.768 2.435-.768.898 0 1.667.128h1.538q.897 0 1.153-.64.257-.77 1.154-.642.384.513 1.282.513.897-.128 1.41-.128.897 0 1.025.512 2.05-1.281 4.486-1.666 2.564-.384 4.87-.384.898 0 1.795.128.897 0 1.923.128 1.153-.769 2.691-.769.898 0 2.82.769 2.051.77 4.23 1.794 2.179 1.026 3.973 2.18 1.795 1.153 2.18 1.922.256.256.256 1.154.128.897.384 1.538.641 1.538 1.154 2.948.64 1.281.64 2.948zm-14.228 1.41q0-.257-.128-.513v-.641q-.64-.769-1.794-1.154-1.026-.384-2.307-.64-1.154-.257-2.436-.385-1.153-.256-2.05-.64-2.692.896-5.897.896-2.948 0-5.255-.897-1.153 1.154-2.948 1.795-1.794.64-3.845 1.025-1.922.256-3.973.385h-3.461q-.513 0-1.794.769-1.282.769-2.308.769-.769 0-1.41-.641-1.153.897-3.204 1.538-2.05.64-4.23 1.153-2.178.385-4.486.898-2.179.512-3.717 1.025-1.538 3.333-1.666 7.306-.128 3.845-.128 7.562 0 2.18-.256 4.23-.257 2.05-.257 4.23 0 1.025.128 2.179.129 1.025.77 2.05-1.026.77-1.41 2.051-.257 1.154-.257 2.307 0 1.41.257 2.564.256 1.153.512 2.179 4.102-.385 7.434-1.538 3.461-1.154 6.409-2.82 3.076-1.666 5.896-3.845 2.82-2.18 5.896-4.615 1.282-.256 2.05-.769.898-.512 2.18-.512.512-1.795 1.922-2.436 1.41-.769 2.18-2.179 1.537-.384 2.563-1.025 1.153-.77 2.179-1.41 1.025-.769 2.179-1.41 1.281-.64 2.82-.769 2.178-2.563 4.486-5.127 2.435-2.563 5.64-4.101.512-1.282 1.153-2.18.64-1.025 1.153-1.922.641-1.025 1.026-2.05.384-1.154.384-2.692z"/>
    <path d="M701.068 125.432v.512q-.897.257-.897 1.282-1.41.641-2.948 1.025-1.538.257-2.948.898-1.41-.128-2.948-.128-1.41-.129-2.82-.129-3.845 0-7.69.257-3.846.256-7.691 0-1.794 1.025-3.973 1.666-2.051.513-3.974.513-1.538 0-2.691-.385-3.077 1.538-6.794 2.564-3.589 1.025-7.306 2.05-3.717.898-7.177 2.18-3.333 1.153-5.896 3.332-.257 1.794-.385 3.589-.128 1.666-.128 3.332 0 1.795.128 3.333.257 1.538.897 3.076.641.256 1.41.384.898.129 1.538.129.641 0 1.282-.129.641-.256.897-.897 1.923-.256 3.846-.128h3.845q1.922 0 3.717-.128 1.922-.128 3.717-.641 2.05-.513 3.973-.64 2.051-.129 3.974-.257 1.922-.128 3.973-.385 2.05-.384 4.23-1.41 1.666.641 3.332.641 1.795 0 3.461.257.897.64 1.41 1.41.64.769.64 1.794 0 1.794-1.281 3.589-1.282 1.794-2.05 3.332h-1.41q-3.077 0-6.025.898-2.82.769-5.768 1.922-2.82 1.026-5.767 1.923-2.82.769-5.896.769-.513 0-.641.64 0 .513-.257.77-.64-.128-1.922-.128-2.948 0-5.64.64-2.692.641-5.511.641h-1.539l-1.538-.256q-.64 1.025-1.666 1.41-1.025.256-1.922 1.025-.385 1.154-.513 2.82 0 1.666-.128 3.46 0 1.667-.257 3.205-.256 1.538-1.025 2.435.128.641 1.025.513.898-.256.898.77 0 1.153-.257 2.434-.256 1.282-.256 2.564 0 2.435.513 5.383.64 2.82 1.794 5.255 1.282 2.436 3.332 4.102 2.051 1.538 5.127 1.538 2.051 0 3.846-.769 1.794-.77 2.948-2.564l.64-.128q.513 0 .898.128.512.129 1.025.129.77 0 1.923-.898 1.281-1.025 2.691-2.307 1.538-1.281 3.077-2.435 1.538-1.282 2.948-1.794.897-1.795 1.666-3.59.897-1.794 2.563-2.82v-3.716q1.282-1.41 2.692-2.564 1.538-1.153 2.307-2.948.64.257 1.154.385.64.128 1.281.128.641 0 1.282-.128.77-.128 1.41-.385 1.025 1.41 1.538 3.205.641 1.666 1.538 3.204-1.153 2.307-2.691 5.512-1.539 3.204-3.333 6.408-1.794 3.205-3.845 6.153-1.923 2.82-3.845 4.357-.385.385-1.667.898-1.41 1.025-2.563 1.922-1.154 1.026-2.18 2.307-3.716 1.154-7.177 3.077-3.332 1.922-6.665 3.717-1.538-.385-3.332-.385-1.538 0-3.077.128-1.538.257-3.332.257-.513-.641-1.538-.898-.897-.128-.641-1.281-4.358-.257-7.05-2.436-2.691-2.05-4.614-5.127-1.794-3.076-2.948-6.665-1.153-3.588-2.435-6.921v-.385q0-.64.513-.769.512-.128.512-.769 0-.256-.128-.384-.384-1.41-.64-2.435-.257-1.026-.257-2.436 0-2.05.256-3.973.257-2.05.257-4.102 0-2.05-.513-3.589.513-.64.897-1.666.256-1.153.385-2.307.128-1.153.128-2.307.128-1.154.384-2.05-.512-1.41-.897-2.436-.384-1.154-.384-2.692v-.897q1.281-2.179 2.178-4.486.898-2.307 1.923-4.743v-.384q0-3.717-.256-7.434-.257-3.717-.257-7.434v-2.436q0-1.281.129-2.435 1.025-.513 1.538-1.41.512-.897 1.538-1.41h4.23l.769-1.281q.384-.641.512-1.41 1.41-.385 2.692-1.026 1.41-.769 2.563-1.538 1.795-1.025 3.205-1.794 1.538-.897 2.948-1.41 1.538-.641 3.204-1.026 1.666-.384 3.845-.64 1.026 0 1.282-.385.385-.384 1.025-.897l3.077.513q1.538.128 3.076.128 3.076 0 5.768-1.154 3.845 0 7.562-.128 3.845-.128 7.69-.128 3.333 0 6.665.256 3.333.257 6.537.897 1.154-.384 2.564-.384 1.538 0 3.076.384 1.666.257 3.204 0 .128 1.41.641 2.436.64.897.64 2.179z"/>
    <path d="M754.77 174.01q0 1.41-1.025 2.179-1.026.64-1.026 1.794 0 .513.513 1.282-1.794 0-2.435 1.153-.641 1.154-1.282 2.564h-1.666q-.641 0-1.026.256-.384.256-.769.77-.256.384-.769 1.28-2.435.514-4.742 1.667-2.179 1.025-4.358 2.307-2.05 1.154-4.23 2.436-2.179 1.153-4.486 1.922-1.153 1.923-3.332 3.076h-.385q-.64.128-1.153-.128-.385-.384-1.026-.384-.384 0-.512.128-3.846 2.563-8.588 2.563-1.282 0-2.435-.128-1.154-.256-2.436-.256-.384 0-.512.256l-.257.513q-.128.256-.384.512-.128.257-.897.257-1.41 0-2.82-.385-1.41-.384-2.948-.128-2.948-1.666-4.615-3.204-1.666-1.538-3.076-4.614-.64-1.41-1.794-2.692-1.026-1.282-1.538-2.82-.128-.513-.385-1.794-.256-1.41-.512-2.948-.257-1.538-.513-2.948-.128-1.41-.128-1.923 0-1.538.128-2.948l.513-3.076q.769-4.87 1.025-9.741.384-5 2.179-9.613-.256-1.41-.256-2.692v-2.82q0-2.435-.641-4.101 1.025-1.667 1.025-3.717 0-2.308-1.923-2.692v-.385q0-2.691-1.794-4.23 0-4.485 2.179-6.664 2.307-2.308 6.024-3.974.513-.769.385-1.282.897.257 1.666.513.769.256 1.538.256 1.282 0 2.307-.384.385 1.538 1.923 1.923 1.666.256 2.691.769v1.666q0 3.973 1.923 7.562-.513 1.026-.64 2.18-.129 1.153-.129 2.178 0 1.538.128 3.076t.128 2.948q0 1.538-.384 3.076-.257 1.538-1.41 2.692-.128 1.666-.256 3.845 0 2.051-.257 4.23-.128 2.179-.64 4.23-.513 2.05-1.539 3.332-.128 1.923-.256 3.974v3.717q0 2.82.256 6.665.385 3.845 1.795 6.408.64 1.026 2.435 1.538 1.923.513 3.076.513 1.41 0 2.82-.384 1.538-.513 2.179-1.667.769.129 1.025.77.257.64.898 1.025 7.305-3.076 14.611-5.896 7.306-2.82 14.356-6.537 1.025.513 2.179.513 1.281 0 2.563-.257 1.282-.256 2.564-.256h.897q.256.769.256 1.154z"/>
  </g>
</svg>
