<svg xmlns="http://www.w3.org/2000/svg" xmlns:xlink="http://www.w3.org/1999/xlink" version="1.0" viewBox="0 0 353.832 115.737">
  <defs/>
  <defs>
    <linearGradient id="d" x1="522.158" x2="485.92" y1="666.278" y2="760.29" gradientUnits="userSpaceOnUse" xlink:href="#a"/>
    <linearGradient id="a">
      <stop offset="0"/>
      <stop offset="1" stop-opacity="0"/>
    </linearGradient>
    <clipPath id="c" clipPathUnits="userSpaceOnUse">
      <text x="478.17" y="657.037" font-family="Bitstream Vera Sans" font-size="12" font-weight="400" style="text-align:start;line-height:125%">
        <tspan x="478.17" y="657.037">1 0 1 1 1 0 0 </tspan><tspan x="478.17" y="672.037">0 1 1 0 0 1 1 </tspan><tspan x="478.17" y="687.037">1 1 0 0 1 1 0 </tspan><tspan x="478.17" y="702.037">1 1 1 0 1 1 0 </tspan><tspan x="478.17" y="717.037">0 1 0 1 0 1 0</tspan><tspan x="478.17" y="732.037">0 1 0 1 1 1 0</tspan><tspan x="478.17" y="747.037">1 0 0 0 0 0 0</tspan><tspan x="478.17" y="762.037">0 1 1 0 1 0 0</tspan>
      </text>
    </clipPath>
    <filter id="b" color-interpolation-filters="sRGB">
      <feGaussianBlur stdDeviation="1.434"/>
    </filter>
    <mask id="e" maskUnits="userSpaceOnUse">
      <path fill="#fff" stroke="#5892eb" stroke-miterlimit="10.433" stroke-width="0" d="M805.955 732.317l-73.446.19c-37.681-58.026-65.878-55.03-62.626-34.162 0 1.636 7.848 32.527 7.629 33.623h21.043l-56.983 78.484-57.237-78.484h20.474c.54-3.536 4.6-28.467 11.12-45.279 28.197-57.215 123.336-1.283 190.026 45.628z" font-weight="400"/>
    </mask>
  </defs>
  <g filter="url(#b)" transform="matrix(1.9897 0 0 1.9897 -206.263 -1185.9)">
    <path d="M177.395 615.403h7.137c2.122 0 3.749.507 4.88 1.52 1.14 1.007 1.71 2.443 1.71 4.311 0 1.876-.57 3.321-1.71 4.335-1.131 1.006-2.758 1.509-4.88 1.509h-2.837v6.203h-4.3v-17.878m4.3 3.34v4.994h2.379c.834 0 1.478-.215 1.932-.646.454-.44.681-1.058.681-1.857 0-.798-.227-1.412-.68-1.844-.455-.43-1.1-.646-1.933-.646h-2.38m11.08 1.125h4l3.361 9.1 2.86-9.1h3.998l-5.26 14.681c-.53 1.493-1.147 2.535-1.855 3.125-.7.599-1.627.898-2.78.898h-2.313v-2.814h1.251c.678 0 1.17-.115 1.474-.347.313-.231.555-.646.726-1.245l.112-.371-5.573-13.927M207.366 615.403h5.473l3.797 9.567 3.82-9.567h5.462v17.878h-4.066v-13.076l-3.842 9.64h-2.725l-3.842-9.64v13.076h-4.077v-17.878m20.797 0h4.323l4.423 13.196 4.411-13.196h4.323l-6.177 17.878h-5.126l-6.177-17.878m19.68 0h7.137c2.122 0 3.75.507 4.881 1.52 1.14 1.007 1.71 2.443 1.71 4.311 0 1.876-.57 3.321-1.71 4.335-1.132 1.006-2.759 1.509-4.88 1.509h-2.838v6.203h-4.3v-17.878m4.3 3.34v4.994h2.38c.833 0 1.477-.215 1.932-.646.454-.44.681-1.058.681-1.857 0-.798-.227-1.412-.681-1.844-.455-.43-1.099-.646-1.933-.646h-2.379M272.684 630.024h-6.724l-1.06 3.257h-4.323l6.176-17.878h5.127l6.176 17.878h-4.322l-1.05-3.257m-5.652-3.317h4.569l-2.279-7.113-2.29 7.113" font-family="Helvetica-Bold,Helvetica,sans-serif" font-size="23.685" font-weight="700"/>
    <path d="M165.896 615.672l-17.04.044c-8.743-13.463-15.285-12.768-14.53-7.926 0 .38 1.82 7.546 1.77 7.8h4.882l-13.221 18.21-13.28-18.21h4.75c.125-.82 1.067-6.604 2.58-10.505 6.542-13.274 28.616-.297 44.089 10.587z" font-weight="400"/>
    <path d="M165.805 615.59l11.995 8.72-12.302 9.887c.023-.018-2.8.107-2.8-.048 0 .018-13.997-18.437-13.843-18.433-.195-.037 17.02-.258 16.95-.125zM107.107 634.79l16.985-.108c8.975 13.309 15.598 12.15 14.759 7.32-.008-.377-1.954-7.515-1.902-7.768l-4.884.085 12.898-18.438 13.6 17.977-4.75.081c-.111.82-.954 6.623-2.396 10.549-6.31 13.386-31.266 3.006-44.31-9.698z" font-weight="400"/>
  </g>
  <path fill="#f9f4f4" d="M122.324 36.942l-33.905.087c-17.395-26.787-30.412-25.404-28.91-15.77 0 .754 3.622 15.015 3.52 15.521h9.715L46.44 73.01 20.016 36.78h9.451c.25-1.633 2.124-13.142 5.134-20.902 13.017-26.413 56.936-.593 87.723 21.063z" font-weight="400"/>
  <path fill="#ffbf00" d="M122.142 36.78l23.867 17.351-24.476 19.671c.045-.038-5.57.212-5.57-.095 0 .035-27.852-36.685-27.544-36.677-.388-.074 33.862-.514 33.723-.25z" font-weight="400"/>
  <path fill="#f9f4f4" d="M5.351 74.981l33.795-.214c17.858 26.48 31.036 24.175 29.366 14.563-.016-.748-3.887-14.95-3.784-15.455l-9.716.17 25.662-36.687 27.059 35.77-9.452.161c-.22 1.633-1.897 13.177-4.766 20.989C80.959 120.91 31.306 100.26 5.35 74.98z" font-weight="400"/>
  <path fill="url(#d)" d="M385.901 706.7l57.044-.36c30.144 44.696 52.387 40.805 49.569 24.58-.026-1.262-6.562-25.235-6.388-26.086l-16.4.285 43.317-61.925 45.674 60.378-15.955.272c-.37 2.755-3.201 22.242-8.045 35.427-21.193 44.956-105.005 10.098-148.816-32.57z" clip-path="url(#c)" font-weight="400" opacity=".3" transform="matrix(.59259 0 0 .59259 -223.336 -343.794)"/>
  <g mask="url(#e)" opacity=".3" transform="matrix(.46175 0 0 .46175 -249.76 -301.173)">
    <path fill="#d1d1d1" d="M622.931 800.481c.332-.332 1.195-.368 1.917-.079.798.32.56.556-.604.604-1.054.044-1.645-.193-1.313-.525zM637.391 800.43c.677-.275 2.027-.291 3-.038.973.254.42.478-1.23.498-1.65.02-2.447-.187-1.77-.46zM619.167 799.097c-.35-.567.052-.735.941-.393 1.733.665 2.05 1.381.611 1.381-.517 0-1.216-.445-1.552-.988zM643.931 799.481c.332-.332 1.195-.368 1.917-.079.798.32.56.556-.604.604-1.054.044-1.645-.193-1.313-.525zM647.931 798.481c.332-.332 1.195-.368 1.917-.079.798.32.56.556-.604.604-1.054.044-1.645-.193-1.313-.525zM611.16 792.085c-3.265-3.3-5.712-6-5.437-6 .275 0 3.172 2.7 6.437 6 3.266 3.3 5.713 6 5.438 6-.275 0-3.172-2.7-6.438-6zM652.931 797.481c.332-.332 1.195-.368 1.917-.079.798.32.56.556-.604.604-1.054.044-1.645-.193-1.313-.525zM629.983 793.408c-1.198-.243-2.715-1.09-3.372-1.883-1.015-1.223-.386-1.439 4.177-1.434 4.832.005 13.579 1.685 12.716 2.442-.695.61-11.412 1.305-13.521.875zM649.41 792.423c.688-.277 1.813-.277 2.5 0 .688.277.125.504-1.25.504s-1.937-.227-1.25-.504zM656.74 790.669c-.044-1.055.192-1.645.525-1.313.332.332.367 1.195.078 1.917-.319.798-.556.56-.604-.604zM651.16 786.343c-19.878-.97-36.48-3.846-36.496-6.324-.002-.311 2.584-1.579 5.746-2.817 3.163-1.238 8.748-3.638 12.41-5.334 5.675-2.626 7.415-2.993 11.75-2.48 2.8.332 5.09.22 5.09-.246 0-.467-1.63-2.28-3.622-4.03-1.993-1.75-3.23-3.55-2.75-4 .48-.449 3.797-1.085 7.372-1.412 3.575-.327 8.363-.867 10.64-1.2 4.552-.664 7.736.55 9.35 3.564.87 1.628.244 2.749-3.967 7.095-3.372 3.48-5.703 7.087-7.157 11.074-1.186 3.253-2.428 6.013-2.76 6.134-.333.12-2.856.11-5.606-.024z"/>
    <path fill="#d1d1d1" d="M657.66 781.026c0-.582-.45-.78-1-.44s-1 .816-1 1.058c0 .243.45.441 1 .441s1-.476 1-1.059zM645.66 778.769c4.896-1.705 6.575-2.776 6.802-4.338.417-2.866-5.294-4.115-7.925-1.734-1.341 1.214-2.888 1.473-6.087 1.022-4.63-.653-16.785 2.851-17.518 5.05-1.019 3.058 15.947 3.058 24.728 0zM654.645 766.903c.008-.926-.88-1.967-1.976-2.315-3.387-1.075-4.14.402-1.81 3.553 2.227 3.01 3.752 2.512 3.786-1.238zM601.024 782.835c-6.708-7.197-14.662-18.75-12.91-18.75.278 0 1.372 1.688 2.43 3.75 1.059 2.063 4.67 7.013 8.027 11 6.424 7.631 7.553 9.473 2.453 4zM603.61 778.034c-1.392-1.391-1.84-2.72-1.392-4.13.363-1.144.093-4.75-.599-8.014-1.696-7.993-.474-9.314 8.374-9.052 9.862.292 13.566 1.938 16.807 7.467 1.522 2.596 2.354 4.975 1.849 5.287-1.022.632-10.105 3.465-11.162 3.482-.37.006-2.085-1.177-3.81-2.628-3.575-3.009-6.034-2.13-4.11 1.466 1.59 2.97 1.338 6.865-.488 7.566-2.49.956-3.279.747-5.47-1.444z"/>
    <path fill="#d1d1d1" d="M611.91 766.099c2.79-.022 2.042-1.67-1.851-4.077-2.976-1.839-3.756-1.983-4.485-.831-1.865 2.945-.374 6.253 2.474 5.489 1.162-.312 2.9-.574 3.862-.581zM674.473 758.107c-1.518-2.668-1.538-3.265-.198-5.95 1.23-2.466 1.295-4.058.373-9.14-.614-3.385-.85-6.848-.525-7.696.66-1.717-1.058-7.734-3.024-10.593-1.198-1.742-1.373-1.67-2.84 1.167-.86 1.664-2.205 6.716-2.988 11.228-.783 4.512-2.068 8.848-2.856 9.636-1.503 1.503-11.346 3.272-18.398 3.306-2.746.013-4.337.526-4.718 1.52-.6 1.565-4.338 2.005-6.238.735-1.711-1.143-2.47-11.757-.987-13.786 1.272-1.74 5.802-1.701 16.821.142 3.37.563 3.888.345 5.302-2.233 6.343-11.57 12.264-21.644 13.719-23.343 2.014-2.352 6.507-2.64 9.303-.595 1.543 1.127 1.95 2.663 1.98 7.475.033 5.103.447 6.492 2.628 8.83 3.563 3.82 4.617 6.114 6.91 15.046l1.986 7.73-2.142 1.75c-1.178.962-3.555 1.826-5.281 1.92-7.902.43-7.604.232-6.107 4.08 1.12 2.879-.903 1.965-2.72-1.229z"/>
    <path fill="#d1d1d1" d="M642.91 746.599c.138-.542-.536-1.138-1.496-1.323-1.257-.242-1.573.117-1.127 1.279.651 1.697 2.198 1.723 2.623.044zM686.431 745.273c.461-1.383-3.378-1.632-4.218-.273-.597.966 1.3 2.077 2.885 1.69.515-.127 1.115-.764 1.333-1.417zM661.749 741.835c.049-.687.198-3.5.331-6.25.134-2.75.607-6.296 1.053-7.88.633-2.251.506-2.784-.582-2.44-2.434.77-4.887 7.077-4.89 12.57 0 4.584.253 5.25 2 5.25 1.1 0 2.04-.562 2.088-1.25zM671.683 721.867c1.685 1.053 2.12 1.009 2.608-.261.322-.839.303-2.65-.042-4.023-.856-3.41-3.94-3.217-6.52.407-2.7 3.79-2.73 5.525-.069 3.863 1.602-1 2.403-.997 4.023.014zM585.913 756.585c-.012-2.2.184-3.217.434-2.261s.26 2.756.02 4c-.239 1.244-.443.461-.454-1.739zM595.29 752.835c-1.294-4.83-.687-9.697 1.37-10.982 2.646-1.652 2.523-3.719-.486-8.152-3.362-4.955-3.541-8.893-.55-12.078 2.863-3.046 5.61-3.28 6.326-.538.288 1.1 1.24 2 2.117 2 1.158 0 1.593-.968 1.593-3.542 0-2.566 1.106-5.04 4.01-8.97 4.825-6.533 6.803-7.7 13.323-7.863l4.997-.125 1.174 4.5c1.632 6.263 3.91 10.329 7.455 13.312 3.903 3.284 6.766 4.162 8.602 2.638 1.821-1.511.157-3.95-2.696-3.95-1.205 0-3.207-2.06-5.526-5.685-3.37-5.268-3.546-5.91-2.387-8.75.688-1.686 1.49-4.19 1.784-5.565 1.269-5.953 4.39-6.582 6.405-1.289l1.413 3.711 2.19-3.71c1.51-2.56 2.898-3.711 4.473-3.711 1.946 0 2.668 1.115 4.888 7.552l2.604 7.552-4.324 2.974c-3.888 2.675-4.391 3.49-5.002 8.097-.374 2.817-1.464 5.906-2.422 6.864-1.77 1.77-8.473 3.098-17.378 3.443-3.857.149-5.073.61-5.638 2.138-.397 1.072-1.517 2.608-2.49 3.414-1.645 1.364-1.567 1.5 1.139 1.972 2.883.503 2.909.57 3.198 8.25l.292 7.743-2.792-.022c-3.734-.03-11.164-3.482-11.961-5.558-.37-.963.692-4.363 2.515-8.061 1.735-3.518 3.154-7.218 3.154-8.223 0-1.004.9-2.64 2-3.636 2.152-1.947 2.805-6.935.822-6.274-.648.217-1.476 1.042-1.839 1.834-1.572 3.431-3.812 7.13-8.733 14.42-3.1 4.593-5.25 8.877-5.25 10.463 0 2.09-.784 3.06-3.534 4.372-4.388 2.093-4.115 2.125-4.835-.565z"/>
    <path fill="#d1d1d1" d="M621.66 749.21c0-1.581.292-4.332.648-6.114.612-3.059.514-3.198-1.75-2.507-1.319.403-3.185 1.424-4.148 2.27-3.338 2.93-1.437 9.226 2.786 9.226 2.048 0 2.464-.486 2.464-2.875zM606.753 737.594c5.073-5.551 7.873-10.876 6.462-12.287-.298-.299-1.368.204-2.377 1.118-2.597 2.35-5.453 2.06-8.166-.827-1.722-1.834-2.672-2.21-3.61-1.431-2.133 1.77-2.68 6.56-1.04 9.104.82 1.273 1.799 4.002 2.176 6.064.56 3.066.39 3.75-.926 3.75-.887 0-1.612.6-1.612 1.334 0 2.292 1.45 2.908 2.498 1.062.551-.971 3.52-4.52 6.595-7.887zM639.453 724.566c.448-.356-6.778-4.48-7.85-4.48-1.413 0-1.136 4.76.307 5.297 1.104.41 6.771-.205 7.543-.817zM618.256 714.253c-1.461-1.462-1.596-1.426-1.596.418 0 2.79 2.37 5.166 2.846 2.855.19-.923-.372-2.395-1.25-3.273zM628.665 709.608c-1.192-5.741-2.257-6.528-6.07-4.488-1.064.57-1.935 1.885-1.935 2.923 0 2.105 8.273 9.723 8.81 8.112.188-.563-.174-3.51-.805-6.547zM653.29 708.727c2.48-2.133 2.646-2.68 1.742-5.75-.853-2.897-1.408-3.362-3.807-3.187-1.544.113-3.644.962-4.667 1.888-1.492 1.35-2.152 1.44-3.335.46-2.078-1.725-3.563-.452-3.563 3.055 0 2.416.624 3.26 3.25 4.401 4.67 2.03 7.264 1.813 10.38-.867zM584.913 745.585c-.012-2.2.184-3.217.434-2.261s.26 2.756.02 4c-.239 1.244-.443.461-.454-1.739zM707.22 679.395c-1.377 9.459-3.577 16.17-5.963 18.19-1.54 1.304-2.925 4.286-3.98 8.564-2.14 8.692-2.04 12.731.49 19.492 1.54 4.116 1.81 5.929 1 6.738-1.584 1.583-1.366 4.393.393 5.068 2.119.813 1.861 4.323-.568 7.734-2.536 3.561-3.286 3.618-4.771.357-.638-1.4-1.16-3.45-1.16-4.554 0-3.12-4.765-19.309-7.509-25.513-2.73-6.175-2.46-7.262 2.833-11.426 3.577-2.814 4.62-4.962 5.71-11.756.505-3.137 1.673-7.395 2.597-9.462 1.398-3.127 1.486-4.407.524-7.616M588.16 741.085c-.732-3.333.15-8.665 1.58-9.548 1.835-1.135 3.002 4.545 1.774 8.644-1.402 4.676-2.462 4.963-3.354.904zM584.74 730.669c-.044-1.055.192-1.645.525-1.313.332.332.367 1.195.078 1.917-.319.798-.556.56-.604-.604zM591.16 719.085c1.581-1.65 3.1-3 3.375-3 .275 0-.794 1.35-2.375 3-1.58 1.65-3.099 3-3.374 3-.275 0 .794-1.35 2.374-3zM595.66 711.83c0-.275.675-1.06 1.5-1.745.825-.684 1.5-1.02 1.5-.745s-.675 1.06-1.5 1.745-1.5 1.02-1.5.745zM599.47 706.585c.506-1.1 1.17-2.675 1.476-3.5.48-1.295.567-1.287.635.06.044.857-.62 2.432-1.476 3.5-1.53 1.91-1.54 1.908-.635-.06zM677.706 664.663c-2.178 1.968-4.23 4.43-4.562 5.473-.508 1.601-1.262 1.804-4.864 1.31-4.756-.651-10.578 1.69-14.12 5.68-3.937 4.435-9.666 7.956-11.995 7.371-1.708-.428-2.678.13-4.12 2.373-1.036 1.613-3.228 4.72-4.87 6.903-2.924 3.888-3.124 3.974-9.68 4.15-5.927.159-6.768-.052-7.337-1.844-.826-2.603-2.173-1.75-2.97 1.88-.553 2.516-1.529 3.37-6.778 5.928-.412.2-.75-.538-.75-1.64 0-2.85 6.232-10.661 8.507-10.665 1.291-.002 3.07-2.08 5.566-6.5 4.781-8.469 8.613-12.711 10.119-11.205.827.827.164 2.18-2.536 5.167-3.766 4.17-4.329 5.507-2.73 6.495.961.594 16.074-12.193 16.074-13.601 0-1.347 5.726-3.853 8.801-3.853 4.312 0 9.2-1.983 9.2-3.732 0-1.282-1.149-1.454-6.932-1.04-5.85.418-7.55.985-10.894 3.634-3.968 3.143-6.175 3.938-6.175 2.224 0-1.268 8.707-6.504 13.379-8.046"/>
    <path fill="#d1d1d1" d="M612.567 695.923c.606-1.739.927-3.338.712-3.553-.702-.702-4.606 4.926-4.046 5.833 1.04 1.684 2.237.866 3.334-2.28zM625.66 695.5c4.825-.462 6.949-2.268 9.565-8.133 1.607-3.603 1.91-8.282.536-8.282-.495 0-3.716 2.916-7.157 6.48-4.965 5.143-6.712 6.366-8.464 5.926-1.464-.368-2.412-.024-2.813 1.02-.932 2.429.352 4.783 2.212 4.055.892-.349 3.646-.828 6.121-1.065zM670.22 665.653c2.596-1.917.94-3.557-4.3-4.26-3.671-.492-4.022-.331-4.478 2.056-.273 1.424-.26 2.825.028 3.113 1.075 1.075 6.878.472 8.75-.91zM666.16 700.565c-2.75-1.897-5.45-3.48-6-3.52-.55-.039-1.965-1.298-3.146-2.797-1.978-2.515-2.04-3.033-.801-6.637 2.476-7.205 8.174-12.612 11.816-11.215 1.463.562 1.595 1.69 1.013 8.668-.38 4.551-.283 8.004.225 7.98.491-.022 1.986-2.385 3.322-5.25s4.18-7.684 6.32-10.709c2.139-3.025 4.646-6.734 5.57-8.243 2.4-3.917 5.172-3.655 5.217.493.02 1.788.64 4.342 1.38 5.676 1.194 2.157 1.03 3.122-1.47 8.696-1.547 3.448-4.643 8.584-6.88 11.414-2.236 2.829-4.066 6.003-4.066 7.054 0 3.311-6.598 2.462-12.5-1.61z"/>
    <path fill="#d1d1d1" d="M672.1 697.183c.307-.497-.792-1.373-2.44-1.948-3.426-1.194-3.71-2.918-1.829-11.07.644-2.789.864-5.378.49-5.753-.767-.767-6.3 4.19-7.832 7.016-1.618 2.986-.12 6.27 4.365 9.568 4.317 3.175 6.271 3.765 7.246 2.187zM687.696 681.543c.941-1.135.985-1.837.164-2.658-1.468-1.468-4.306.76-3.533 2.773.707 1.844 1.773 1.808 3.369-.115zM613.746 685.467c1.328-1.715 2.615-2.939 2.861-2.72.246.22-.84 1.623-2.414 3.119l-2.86 2.72 2.413-3.119z"/>
    <path fill="#b9b9b9" d="M627.16 797.178c-5.495-.66-9.555-3.113-14.529-8.779-3.86-4.396-2.4-5.751 2.377-2.207 2.705 2.007 4.782 2.433 14.652 3.007 6.325.369 12.85.969 14.5 1.334 3.482.77 11-.591 11-1.992 0-.526-3.375-1.225-7.5-1.554l-7.5-.598 8.75-.016c4.813-.009 8.75.344 8.75.783 0 .44-.432 1.936-.96 3.325-1.038 2.731-6.778 4.842-16.54 6.083-2.75.35-5.675.766-6.5.925-.825.16-3.75.02-6.5-.311z"/>
    <path fill="#b9b9b9" d="M643.504 792.533c.863-.757-7.884-2.437-12.716-2.442-4.563-.005-5.192.211-4.177 1.434.657.792 2.174 1.64 3.372 1.883 2.109.43 12.826-.264 13.521-.875zM651.91 792.423c-.687-.277-1.812-.277-2.5 0-.687.277-.125.504 1.25.504s1.938-.227 1.25-.504zM632.924 785.368c1.52-.23 3.77-.224 5 .013 1.23.238-.014.426-2.764.418-2.75-.008-3.756-.201-2.236-.431zM616.295 782.481c-3.226-1.387-6.6-2.267-7.5-1.956-1.377.476-1.358.35.115-.798 1.99-1.549 2.265-4.812.658-7.815-1.925-3.597.534-4.475 4.109-1.466 3.58 3.013 3.19 3.476-.754.892-2.598-1.703-2.645-1.696-1.83.25.461 1.099.782 3.01.714 4.247-.1 1.813.408 2.253 2.615 2.266 2.079.011 2.384.239 1.267.945-.809.512-1.259 1.092-1 1.288 1.446 1.099 8.899 3.743 11.471 4.07 2.808.357 2.776.389-.5.49-1.925.06-6.139-1.026-9.365-2.413zM602.204 778.133c-1.057-1.168-2.203-4.976-2.851-9.477-1.047-7.27-1.004-7.61 1.286-10.048 1.303-1.387 3.304-2.461 4.446-2.387 1.989.131 1.985.154-.102.56-4.014.782-4.72 2.719-3.348 9.187.684 3.22.946 6.792.583 7.935-.448 1.41 0 2.74 1.391 4.131 1.128 1.128 1.671 2.051 1.206 2.051-.464 0-1.64-.878-2.611-1.952zM622.16 772.027c1.65-.589 3.992-1.472 5.204-1.964l2.203-.892-2.547-4.558c-3.023-5.409-4.523-6.33-12.112-7.442-5.501-.806-5.564-.847-1.466-.964 6.226-.177 10.536 2.026 14.102 7.209 1.714 2.491 3.116 4.956 3.116 5.478 0 1.094-4.139 2.877-8.5 3.663l-3 .54 3-1.07zM636.101 769.66c1.14-.925 3.617-1.52 6-1.441l4.06.134-4.5.642c-2.476.353-5.176 1.001-6 1.44-.826.44-.627.09.44-.776zM664.66 770.83c0-.275.675-1.06 1.5-1.745.825-.684 1.5-1.02 1.5-.745s-.675 1.06-1.5 1.745-1.5 1.02-1.5.745zM646.66 769.692c0-.216.675-.652 1.5-.968.825-.317 1.5-.14 1.5.393 0 .532-.675.968-1.5.968s-1.5-.177-1.5-.393zM669.76 766.38c.729-1.212 1.54-1.989 1.803-1.725.263.263-.333 1.255-1.324 2.204-1.722 1.65-1.743 1.628-.478-.478zM590.81 759.857c-3.159-6.747-3.641-9.336-2.52-13.522 1.1-4.099 2.37-2.334 2.37 3.29 0 3.62.714 6.94 2.06 9.576 1.131 2.22 1.874 4.789 1.65 5.71-.253 1.034-1.613-.898-3.56-5.054zM645.16 765.085c-.34-.55-3.468-1-6.952-1-4.853 0-6.476-.37-6.94-1.582-.335-.87-.529-5.707-.433-10.75.096-5.042.352-7.15.569-4.684.217 2.466.926 4.821 1.575 5.235 2.011 1.278 5.715.857 6.32-.719.381-.994 1.972-1.506 4.718-1.52 7.052-.034 16.895-1.803 18.398-3.306.788-.788 2.073-5.124 2.856-9.636 1.225-7.056 3.612-14.038 4.801-14.038 1.426 0 3.867 8.451 4.106 14.214.364 8.753-.264 8.243-1.447-1.176-.851-6.78-2.25-10.193-3.615-8.826-1.284 1.284-1.644 11.69-.521 15.09.994 3.013.922 3.988-.455 6.089-2.152 3.285-10.396 5.065-19.125 4.13-5.372-.575-6.355-.44-6.355.874 0 3.26 5.413 4.722 14.853 4.009 7.456-.563 9.23-.396 11.483 1.08 1.465.96 2.664 2.35 2.664 3.086 0 .803-1.022.317-2.55-1.212-2.243-2.242-3.121-2.479-7.25-1.956-2.585.327-7.625.867-11.2 1.201-7.861.734-9.118 1.653-5.91 4.324 1.326 1.104 2.1 2.022 1.72 2.04-.38.018-.97-.417-1.31-.967zM677.227 759.085a134.4 134.4 0 01-.963-2.865c-.057-.202 1.696-.497 3.896-.658 3.62-.264 3.745-.2 1.312.679-1.582.57-2.832 1.87-3.037 3.157-.336 2.11-.378 2.1-1.208-.313z"/>
    <path fill="#b9b9b9" d="M672.781 757.512l-2.024-2.573 2.202-4.543c1.343-2.772 2.327-3.913 2.525-2.927.177.889-.37 3.005-1.217 4.703-1.391 2.789-1.387 3.319.042 5.5 2.1 3.204 1.03 3.092-1.528-.16zM594.668 755.1c-.554-1.036-.952-4.05-.883-6.699l.125-4.816.774 5.316c.426 2.923.989 5.53 1.251 5.793.263.262 2.108-.3 4.102-1.251 2.837-1.353 3.623-2.311 3.623-4.415 0-1.586 2.15-5.87 5.25-10.463 4.921-7.29 7.161-10.989 8.733-14.42.363-.792 1.19-1.617 1.839-1.834 1.983-.66 1.33 4.327-.822 6.274-1.1.996-2 2.653-2 3.684 0 1.03-1.35 4.548-3 7.816-3.587 7.108-3.684 8.407-.777 10.444 1.222.856 1.785 1.546 1.25 1.534-.535-.012-2.098-.891-3.473-1.953l-2.5-1.93 3.784-7.181c5.639-10.703 3.36-11.062-3.453-.543-2.924 4.515-3.832 6.823-3.448 8.762.461 2.335-.04 2.925-4.424 5.199-4.753 2.466-4.983 2.492-5.951.682z"/>
    <path fill="#b9b9b9" d="M619.66 724.967c0-.55-.45-.722-1-.382-.55.34-1 1.068-1 1.618s.45.722 1 .382c.55-.34 1-1.068 1-1.618zM623.984 754.382c1.605-.415 1.784-1.407 1.5-8.292-.178-4.301.014-7.61.426-7.354.413.257.75 4.04.75 8.408 0 7.603-.095 7.936-2.25 7.825-1.804-.093-1.889-.21-.426-.587zM595.78 741.477c.89-1.04 1.868-2.567 2.17-3.392.395-1.07.575-.925.631.51.044 1.105-.933 2.631-2.17 3.391-2.153 1.323-2.18 1.3-.631-.51zM687.818 740.085c0-1.375.227-1.937.505-1.25.277.688.277 1.813 0 2.5-.278.688-.505.125-.505-1.25zM592.12 738.467c.732-2.62-1.092-7.727-2.458-6.883-1.642 1.015-1.123-2.794.772-5.668 2.353-3.567 6.708-7.531 9.113-8.295 1.412-.448 2.133-.05 2.605 1.437.884 2.786 2.508 1.567 2.508-1.882 0-5.418 9.5-15.188 14.618-15.034 1.06.032.376.577-1.568 1.25-4.988 1.725-11.955 10.975-12.01 15.943-.029 2.748-.466 3.75-1.633 3.75-.877 0-1.83-.9-2.117-2-1.303-4.98-8.897.619-8.468 6.244.133 1.743.99 3.995 1.904 5.005 1.551 1.715 1.55 1.794-.032 1.187-1.294-.496-1.697-.094-1.709 1.707-.008 1.297-.488 3.032-1.065 3.857-.837 1.195-.93 1.07-.46-.618zM621.359 735.835c1.126-1.237 2.241-2.885 2.478-3.662.285-.932 2.117-1.478 5.378-1.604 8.931-.346 15.634-1.672 17.406-3.444.958-.958 2.048-4.047 2.422-6.864.615-4.64 1.1-5.412 5.155-8.202 3.785-2.604 4.32-3.37 3.47-4.96-1.752-3.274-1.098-3.274 1.656-.002 2.516 2.99 2.578 3.312 1.13 5.827-.842 1.464-2.279 4.954-3.192 7.756-.912 2.802-2.79 6.627-4.173 8.5l-2.513 3.405-8.343-.346c-4.979-.207-9.196.11-10.458.785-1.565.838-2.66.84-4.21.01-1.767-.945-2.354-.755-3.742 1.215-.906 1.285-1.538 2.674-1.405 3.086.133.413-.511.75-1.432.75-1.455 0-1.407-.294.373-2.25zM686.163 735.095c-.373-1.178-2.085-3.742-3.802-5.698-2.735-3.115-3.128-4.297-3.162-9.515-.043-6.643-1.674-8.797-6.658-8.797-3.348 0-4.827 1.415-8.878 8.496-4.273 7.468-4.86 6.997-.782-.629 3.99-7.462 6.506-9.335 11.462-8.53 2.005.325 4.043.989 4.529 1.475 1.243 1.243 9.084 24.226 8.473 24.837-.276.276-.808-.461-1.182-1.64zM690.284 734.547c-.343-.894-.585-2.376-.538-3.293.048-.918.483-.341.967 1.281.943 3.156.61 4.718-.43 2.012zM688.74 727.669c-.044-1.055.192-1.645.525-1.313.332.332.367 1.195.078 1.917-.319.798-.556.56-.604-.604z"/>
    <path fill="#b9b9b9" d="M643.076 722.913c1.862-1.081 1.864-1.15.059-2.47-1.52-1.11-1.572-1.358-.288-1.358 2.403 0 4.022 2.391 2.59 3.824-.647.647-1.874 1.163-2.727 1.146-1.192-.024-1.107-.287.366-1.142zM686.284 720.547c-.965-2.515-.68-3.164.498-1.137.584 1.004.851 2.036.594 2.293-.258.258-.75-.263-1.092-1.156zM634.065 717.835l-1.905-2.25 2.25 1.905c2.115 1.79 2.706 2.595 1.905 2.595-.19 0-1.202-1.012-2.25-2.25zM617.91 717.944c-.687-.692-1.25-2.165-1.25-3.273 0-1.844.135-1.88 1.596-.418.878.878 1.44 2.35 1.25 3.273-.277 1.346-.592 1.428-1.596.418z"/>
    <path fill="#b9b9b9" d="M636.638 714.896c-4.072-5.621-4.418-7.59-2.411-13.723 1.734-5.303 3.17-7.34 6.38-9.06 2.19-1.171 3.053-.425 3.053 2.639 0 3.504 1.347 2.825 3.802-1.917 5.323-10.28 10.97-15.79 17.698-17.27l3-.66-3.429 1.84c-4.065 2.182-6.68 5.517-8.518 10.866-1.24 3.604-1.177 4.122.801 6.637 1.18 1.5 2.55 2.752 3.043 2.782.493.03 3.27 1.63 6.17 3.555 6.125 4.067 12.433 4.889 12.433 1.62 0-1.033 1.983-4.432 4.406-7.552 2.423-3.12 5.406-8.14 6.63-11.156 2.809-6.92 3.595-6.578.94.409-1.086 2.86-1.976 6.868-1.976 8.906 0 3.058-.8 4.518-4.591 8.366l-4.592 4.662-6.658-.436c-10.02-.656-10.93-1.015-13.886-5.483-2.62-3.96-2.756-4.03-3.333-1.732-.565 2.256-.645 2.205-1.35-.854-1.095-4.754-4.901-4.53-7.847.461l-2.19 3.711-1.412-3.71c-2.014-5.294-5.136-4.665-6.405 1.288-.293 1.375-1.096 3.88-1.784 5.565-1.159 2.84-.984 3.482 2.387 8.75 4.247 6.64 4.027 7.553-.36 1.496zM683.823 714.542c-1.676-3.677-1.356-4.461.456-1.118.846 1.56 1.35 3.025 1.122 3.254-.229.229-.939-.732-1.578-2.136zM599.66 713.644c0-.242.45-.719 1-1.059.55-.34 1-.141 1 .441 0 .583-.45 1.06-1 1.06s-1-.2-1-.442z"/>
    <path fill="#b9b9b9" d="M683.61 707.178c.613-1.144 2.43-3.053 4.039-4.242 3.289-2.432 5.011-6.448 5.011-11.684 0-1.944.953-5.504 2.118-7.91 2.048-4.231 2.064-4.55.465-9.633-1.194-3.798-1.384-5.933-.682-7.69.887-2.218.978-2.09 1.036 1.45.035 2.136.59 5.64 1.232 7.785.976 3.259.896 4.473-.49 7.38-.913 1.913-1.93 5.385-2.259 7.715-1.067 7.549-2.349 10.219-7.005 14.601-2.518 2.369-4.076 3.371-3.464 2.228zM628.485 704.76c-.372-1.825-.233-2.483.393-1.857.534.534.793 1.805.576 2.826-.291 1.375-.542 1.123-.97-.97zM622.391 701.43c.677-.275 2.027-.291 3-.038.973.254.42.478-1.23.498-1.65.02-2.447-.187-1.77-.46zM618.391 698.43c.677-.275 2.027-.291 3-.038.973.254.42.478-1.23.498-1.65.02-2.447-.187-1.77-.46zM630.324 697.046c4.817-5.936 7.21-8.127 3.782-3.46-2.021 2.75-4.112 5.162-4.646 5.361-.535.2-.146-.656.864-1.9z"/>
    <path fill="#b9b9b9" d="M668.66 690.585c0-1.412.52-2.39 1.196-2.25.658.138 2.13-2.225 3.27-5.25 4.27-11.323 7.506-15.898 12.62-17.842 3.484-1.325 4.587-.392 5.13 4.342.254 2.2.79 4.9 1.192 6 .462 1.266.168 1.083-.803-.5-.844-1.375-1.55-3.962-1.57-5.75-.044-4.148-2.816-4.41-5.215-.493-.925 1.509-3.432 5.218-5.572 8.243-2.14 3.025-4.983 7.844-6.32 10.71-2.67 5.726-3.928 6.62-3.928 2.79zM705.818 687.085c0-1.375.227-1.937.505-1.25.277.688.277 1.813 0 2.5-.278.688-.505.125-.505-1.25zM617.66 687.443c0-.536.7-1.849 1.556-2.917 1.466-1.83 1.487-1.798.364.56-1.458 3.06-1.92 3.628-1.92 2.357zM638.683 686.043c.836-1.562 1.754-1.98 3.429-1.56 2.386.6 8.061-2.867 12.048-7.358 3.542-3.989 9.364-6.33 14.12-5.678 3.602.493 4.356.29 4.864-1.311.331-1.042 2.384-3.505 4.562-5.473 3.153-2.848 4.724-3.554 7.707-3.463l3.747.115-3.5.7c-5.273 1.054-7.771 2.748-10.551 7.152-2.321 3.677-2.788 3.945-5.855 3.37-4.037-.757-8.519 1.338-17.066 7.98-3.284 2.553-7.11 4.877-8.5 5.165-1.39.288-3.342.967-4.337 1.51-1.612.877-1.685.752-.668-1.149zM624.292 685.383c-1.169-1.168-.647-2.275 2.95-6.257 2.197-2.431 3.3-4.463 2.854-5.253-.584-1.032-.462-1.04.616-.04 1.112 1.033.791 1.82-1.854 4.548-2.977 3.072-4.129 5.704-2.495 5.704.386 0 2.298-1.462 4.248-3.25l3.545-3.25-2.998 3.336c-3.361 3.741-5.923 5.406-6.866 4.462zM668.74 684.669c-.044-1.055.192-1.645.525-1.313.332.332.367 1.195.078 1.917-.319.798-.556.56-.604-.604zM669.542 679.304c-.33-1.987-.183-2.92.372-2.365.503.503.748 1.98.544 3.281-.315 2.002-.456 1.86-.916-.916zM638.69 673.29c3.088-4.132 3.445-6.46.705-4.597-.722.49.055-.333 1.726-1.83 1.672-1.499 3.427-2.736 3.9-2.75.474-.016-.201.857-1.5 1.939l-2.36 1.967 2.5.063c2.378.061 2.402.12.5 1.2-1.1.624-3.504 2.747-5.342 4.719l-3.34 3.584 3.211-4.296zM707.74 675.669c-.044-1.055.192-1.645.525-1.313.332.332.367 1.195.078 1.917-.319.798-.556.56-.604-.604zM650.41 667.423c.688-.277 1.813-.277 2.5 0 .688.277.125.504-1.25.504s-1.937-.227-1.25-.504zM656.16 665.805c1.77-1.079 1.365-1.288-3.5-1.807l-5.5-.587 5.75-.163c4.327-.122 5.75.182 5.75 1.23 0 .766-.711 1.666-1.581 2-2.582.99-3.065.636-.919-.673z"/>
    <path fill="#949494" d="M618.582 796.147c-4.002-2.66-14.146-12.33-11.172-10.65.768.434 1.25.104 1.25-.853 0-2.209 2.18-1.94 7.596.941 4.761 2.532 13.404 3.499 13.404 1.5 0-.55-1.687-1.01-3.75-1.022-2.062-.012-5.77-.938-8.241-2.059-2.47-1.12-5.709-2.123-7.197-2.228-1.704-.12-2.355-.542-1.76-1.14.597-.598 2.887-.108 6.197 1.326 5.635 2.44 23.053 5.1 33.501 5.114 4.657.007 6.25.363 6.25 1.396 0 1.943-7.68 2.926-13.1 1.676-2.42-.557-8.225-1.031-12.9-1.053-5.53-.026-9.373-.544-11-1.485-5.536-3.201-7.038-3.82-7.692-3.166-.87.87 7.342 9.354 10.833 11.19 4.599 2.42 15.301 2.148 28.19-.714 3.735-.83 5.096-.786 6 .193.896.97.887 1.107-.04.585-.665-.374-2.015-.268-3 .235-3.747 1.917-11.64 3.152-20.134 3.152-8.082 0-9.18-.244-13.235-2.938z"/>
    <path fill="#949494" d="M651.66 789.085c1.854-.593.95-.808-3.5-.83-4.21-.02-5.403.227-4 .83 2.438 1.048 4.23 1.048 7.5 0zM640.848 788.402c-.722-.289-1.585-.253-1.917.08-.332.331.259.568 1.313.524 1.165-.048 1.402-.285.604-.604zM598.607 777.357c-1.896-2.051-2.364-2.839-1.04-1.75l2.407 1.978-.713-2.5c-.392-1.375-.97-5.274-1.287-8.665-.529-5.681-.371-6.368 2.01-8.75 1.527-1.526 2.04-2.585 1.253-2.585-.732 0-1.892.675-2.577 1.5-.684.825-2.138 1.5-3.23 1.5-1.512 0-1.803.416-1.224 1.75 1.518 3.5 1.724 8.466.385 9.293-1.662 1.027-3.823-1.739-3.205-4.1.247-.945-.117-2.067-.808-2.494-.893-.552-1.067-.28-.6.94.406 1.055.264 1.47-.37 1.08-.566-.35-.738-1.556-.381-2.678.432-1.361.279-1.813-.46-1.357-.717.443-1.107-.393-1.107-2.375 0-1.682.192-3.059.427-3.059s1.654 2.588 3.155 5.75c1.735 3.658 2.874 5.141 3.132 4.076.222-.921-.523-3.49-1.655-5.71-2.443-4.79-2.737-14.306-.559-18.116.878-1.535 1.456-1.92 1.498-1 .05 1.07.633.823 2.036-.86 1.081-1.299 1.966-2.01 1.966-1.58 0 .43-.75 1.613-1.669 2.627-2.05 2.265-2.979 11.734-1.435 14.618l1.12 2.092 4.943-2.565c4.372-2.268 4.886-2.87 4.442-5.199-.594-3.108 6.07-14.578 7.836-13.486.61.377.784.195.402-.423a1.278 1.278 0 01.412-1.755c2.35-1.452 1.892.588-1.573 7.005-1.992 3.69-3.417 7.242-3.167 7.895.727 1.893 9.858 6.425 13.69 6.794l3.5.337.287-8.096c.225-6.322-.049-8.375-1.25-9.372-.846-.702-1.538-1.732-1.538-2.289 0-.557.9.132 2 1.53 2.637 3.352 2.981 18.137.445 19.11-1.29.495-.998 1.406 1.71 5.34 1.794 2.61 3.347 5.955 3.45 7.433.193 2.796-.327 3.15-8.43 5.732-5.4 1.722-3.352-1.05 2.259-3.058 2.629-.94 5.033-1.963 5.341-2.271.794-.794-1.65-5.082-5.313-9.318-3.09-3.575-3.203-3.612-12.343-4.05-8.639-.412-9.386-.29-11.774 1.934-2.372 2.21-2.505 2.811-1.918 8.636.742 7.364 2.036 11.263 4.31 12.99 1.371 1.041 1.397 1.25.15 1.25-.822 0-3.045-1.679-4.94-3.73z"/>
    <path fill="#949494" d="M612.356 752.107c-5.2-3.297-5.386-3.785-3.122-8.164 2.196-4.246.984-4.808-1.553-.72-1.468 2.366-1.919 4.305-1.521 6.544.427 2.4.127 3.437-1.217 4.22-1.357.79-.124 1.045 5.163 1.068l6.946.03-4.696-2.978zM593.645 742.276c-.013-1.457-.15-1.483-.985-.19-1.265 1.958-1.265 3.281 0 2.5.55-.34.993-1.38.985-2.31zM611.807 775.835c.068-1.237-.237-3.107-.678-4.155-.788-1.873-.748-1.873 2.438 0 2.239 1.317 2.753 2.005 1.666 2.229-2.126.437-2 2.918.177 3.487 1.082.283.704.502-.988.573-2.242.095-2.717-.292-2.615-2.134zM666.16 771.085c.996-1.1 2.035-2 2.31-2 .275 0-.314.9-1.31 2-.995 1.1-2.035 2-2.31 2-.275 0 .315-.9 1.31-2zM636.101 768.64c1.068-.855 3.682-1.555 5.81-1.555 2.394 0 3.625-.391 3.232-1.028-.35-.565-3.33-.947-6.622-.848-8.52.255-8.97-.421-9.112-13.727-.064-5.993.22-11.908.634-13.144.932-2.79 3.968-3.603 10.816-2.897 2.916.3 6.635.681 8.265.845 2.578.26 3.274-.26 5.357-4.01 2.91-5.236 2.278-6.704-.766-1.78l-2.173 3.518-7.823-.604c-4.825-.372-9.062-.17-11.059.525-3.444 1.201-8 .595-8-1.065 0-.57.75-.677 1.75-.247.963.413 2.65.637 3.75.497s6.163-.343 11.25-.45c9.247-.196 9.251-.197 11.721-3.545 1.36-1.843 3.219-5.643 4.131-8.445.913-2.802 2.35-6.292 3.192-7.756 1.448-2.515 1.386-2.836-1.13-5.827-3.94-4.682-3.236-5.65.833-1.147l3.498 3.871-2.998 6.61c-4.746 10.47-3.681 12.023 1.471 2.146 3.432-6.577 6.712-9.534 10.417-9.39 2.304.09 2.216.197-.745.897-1.849.437-3.95 1.403-4.67 2.148-1.477 1.528-5.81 9.055-11.057 19.207-3.471 6.716-3.607 6.84-6.728 6.158-1.751-.384-6.14-.914-9.75-1.18-8.971-.658-9.34-.11-9.065 13.48.299 14.7.026 14.188 7.543 14.188 5.007 0 6.644.405 8.087 2 1.786 1.973 1.747 2-2.91 2-2.597 0-5.704.475-6.905 1.055-2.11 1.02-2.119 1.003-.244-.5z"/>
    <path fill="#949494" d="M669.66 759.276c-2.391-2.313-2.9-2.39-11.759-1.784-9.886.678-15.24-.732-15.24-4.012 0-1.314.982-1.449 6.354-.873 13.639 1.46 22.156-2.75 19.717-9.745-1.209-3.469-1.37-8.034-.447-12.652 1.298-6.49 3.747-2.569 4.604 7.375.536 6.213-.42 4.129-1.835-4l-.696-4-1.002 3.279c-.72 2.356-.626 4.845.335 8.848.929 3.872 1.026 6.072.317 7.221-2.181 3.54-16.301 6.482-22.598 4.71-3.479-.98-3.65.71-.23 2.27 1.655.753 5.532.934 11.288.525 8.391-.595 8.895-.513 11.73 1.928 1.63 1.402 2.737 2.724 2.462 2.938-.275.214-1.625-.698-3-2.028z"/>
    <path fill="#949494" d="M671.114 757.034c-1.811-2.001-1.804-2.152.298-6.25 1.185-2.31 2.365-4.874 2.622-5.699.351-1.125.488-1.052.547.29.044.985-.796 3.507-1.867 5.605-1.756 3.442-1.8 4.023-.443 5.96 1.906 2.72 1.267 2.773-1.157.094zM593.776 735.713c-.098-2.445.108-2.687 1.384-1.628 1.644 1.365 2.052 2.459.576 1.547-.508-.314-1.131.222-1.384 1.191-.274 1.05-.506.603-.576-1.11zM687.22 735.085c-.446-1.925-2.397-7.927-4.336-13.338-2.494-6.961-4.138-10.104-5.624-10.748-1.979-.86-1.985-.897-.1-.663 2.15.268 4.422 4.237 8.158 14.25 1.23 3.3 2.242 5.1 2.246 4 .005-1.1-.64-3.8-1.433-6-1.696-4.71-1.803-5.549-.446-3.5.546.824 1.625 3.75 2.397 6.5 2.322 8.27 2.733 10.713 1.694 10.07-.53-.327-1.14.198-1.354 1.167-.247 1.114-.689.475-1.202-1.738zM617.66 726.203c0-.55.45-1.278 1-1.618.55-.34 1-.168 1 .382s-.45 1.278-1 1.618c-.55.34-1 .168-1-.382zM590.69 723.64c-.039-1.237 5.067-6.555 6.293-6.555.521 0 2.075-1.216 3.453-2.703 1.769-1.908 2.122-2.83 1.202-3.137-.717-.24-1.905.388-2.64 1.394-1.591 2.176-1.774 1.13-.287-1.647.577-1.08 1.426-1.73 1.886-1.446.46.285 1.421-.187 2.136-1.048 1.022-1.232 1.036-1.728.066-2.327-.942-.582-.868-1.066.314-2.046 1.314-1.09 1.547-.964 1.547.838 0 2.98.877 2.676 5.989-2.07 4.418-4.102 4.607-4.17 12.083-4.263 7.467-.093 7.649-.157 10.862-3.816 1.797-2.047 3.663-3.478 4.146-3.18.484.3 1.865.016 3.07-.63 1.807-.966 2.411-.872 3.442.537 1.15 1.574 1.345 1.525 2.454-.623.662-1.283 2.125-3.343 3.25-4.579 2.627-2.884 1.631-3.907-1.686-1.733-2.923 1.915-9.89 3.743-9.044 2.372.304-.49 1.455-.893 2.56-.893 2.614 0 5.23-1.445 11.284-6.23 7.449-5.887 12.246-8.057 16.184-7.318 3.067.575 3.534.307 5.855-3.37 1.387-2.198 3.541-4.555 4.787-5.239 2.578-1.415 13.195-2.873 11.965-1.643-.781.781-.045 8.467 1.346 14.046.45 1.807.069 4.03-1.118 6.5-.991 2.065-1.998 6.35-2.237 9.52-.406 5.396-.74 6.041-5.177 10.031l-4.743 4.265-7.528-.18c-9.25-.22-11.119-.779-13.198-3.953-.898-1.37-2.064-2.227-2.59-1.902-.525.325-.932-.673-.903-2.218l.052-2.809 1.698 2.446c4.437 6.393 4.593 6.477 13.34 7.164l8.357.656 4.75-4.595c4.006-3.875 4.75-5.183 4.75-8.346 0-2.062.954-6.298 2.119-9.412 1.783-4.765 1.943-6.238 1.01-9.288-.61-1.994-1.225-4.975-1.368-6.625-.221-2.548-.637-2.96-2.76-2.734-5.429.578-10.912 7.43-14.434 18.034-.95 2.86-2.141 5.2-2.647 5.2-1.064 0-1.024-4.158.08-8.5l.764-3 .118 2.823c.102 2.427.613 1.866 3.645-4 1.94-3.753 4.977-8.048 6.75-9.546 3.609-3.049 3.096-3.538-1.316-1.256-1.618.836-3.804 3.213-4.86 5.28-1.728 3.389-2.497 3.882-7.76 4.977-9.62 2.002-14.307 6.109-20.515 17.972-2.483 4.745-3.826 5.417-3.826 1.917 0-1.283-.284-2.618-.631-2.965-.73-.73-3.564.637-5.654 2.727-2.06 2.06-4.955 11.48-4.313 14.034.88 3.506 6.463 10.535 9.192 11.573 1.39.528 2.25 1.41 1.91 1.959-.728 1.178-5.895-1.215-9.254-4.286-2.242-2.05-3.15-4.384-1.25-3.209 1.288.796 1.27-.126-.05-2.593-.577-1.08-1.421-1.733-1.875-1.453-.454.28-1.102-1.223-1.44-3.342-.34-2.119-1.292-4.412-2.117-5.097-2.03-1.684-10.016-.454-14.363 2.214-4.443 2.726-9.155 9.376-9.155 12.921 0 3.05-1.407 3.838-2.37 1.326-.877-2.285-5.372-.784-8.743 2.919-1.556 1.708-2.841 2.68-2.857 2.16z"/>
    <path fill="#949494" d="M636.615 717c-.614-1.147-1.37-1.833-1.678-1.525-.309.31.008 1.248.703 2.086 1.798 2.166 2.284 1.886.974-.561zM606.096 709.187c-.628-.627-2.413 1.912-2.389 3.398.01.55.673.133 1.475-.927s1.213-2.172.914-2.47zM614.624 702.718c3.004-1.706 3.74-2.532 2.635-2.956-.926-.356-2.702.58-4.489 2.367-3.568 3.569-3.455 3.605 1.854.589zM633.66 699.828c0-1.03.487-2.857 1.081-4.058.597-1.206-.12-.712-1.6 1.1-2.04 2.5-3.179 3.129-4.76 2.627-1.968-.625-1.95-.5.35 2.37 2.159 2.692 2.568 2.851 3.68 1.433.687-.879 1.25-2.44 1.25-3.472zM682.823 714.542c-.64-1.403-1.145-3.092-1.124-3.754.022-.661.704.328 1.516 2.199 1.709 3.937 1.347 5.373-.392 1.555zM686.502 702.97c3.917-4.195 4.394-5.269 5.207-11.743.492-3.919 1.648-8.275 2.57-9.681 1.568-2.395 1.564-2.884-.064-7.758-1.369-4.1-1.5-5.733-.618-7.703l1.12-2.5-.521 2.5c-.287 1.375.224 4.902 1.136 7.837 1.562 5.032 1.555 5.509-.115 8.337-.975 1.65-2.139 5.957-2.587 9.573-.76 6.126-1.143 6.885-5.628 11.163l-4.812 4.59 4.312-4.616zM625.66 682.74c0-.78 1.636-2.665 3.635-4.19 1.999-1.524 3.432-2.14 3.185-1.368-.247.772-1.432 1.847-2.634 2.39-1.202.543-2.186 1.357-2.186 1.81 0 .451.45.543 1 .203s1-.382 1-.094c0 .288-.9 1.006-2 1.594-1.562.836-2 .76-2-.346zM637.07 672.506c.274-1.873 4.59-5.367 4.59-3.717 0 .521-1.092 1.974-2.427 3.228-2.09 1.963-2.39 2.031-2.164.49zM645.101 665.553c2.087-1.578 11.56-2.057 11.56-.584 0 1.239-3.708 2.092-9 2.07-4.174-.016-4.36-.124-2.56-1.486z"/>
    <path fill="#949494" d="M648.848 665.402c-.722-.289-1.585-.253-1.917.08-.332.331.259.568 1.313.524 1.165-.048 1.402-.285.604-.604z"/>
    <path fill="#7b7b7b" d="M655.16 794.637c1.65-.752 3.188-1.183 3.417-.96.662.648-.2 1.084-3.417 1.727l-3 .6 3-1.367zM644.16 789.085c-1.403-.603-.21-.85 4-.83 4.45.022 5.354.237 3.5.83-3.27 1.048-5.062 1.048-7.5 0zM638.931 788.481c.332-.332 1.195-.368 1.917-.079.798.32.56.556-.604.604-1.054.044-1.645-.193-1.313-.525zM616.256 785.585c-5.506-2.927-7.328-3.123-7.772-.832-.271 1.398-.808 1.23-3.324-1.04l-3-2.708 5.527.489c3.04.269 7.54 1.402 10 2.518 2.46 1.116 6.16 2.04 8.223 2.051 2.063.012 3.75.472 3.75 1.022 0 1.999-8.643 1.032-13.404-1.5zM613.66 775.585c0-1 1-1.5 3-1.5 3.206 0 4.03 1.391 1.419 2.393-2.68 1.029-4.419.677-4.419-.893zM667.91 770.59c5.628-6.004 6.145-9.25 2-12.548-2.513-2-3.501-2.137-11.48-1.585-5.694.394-9.606.204-11.25-.545-3.42-1.558-3.249-3.249.23-2.27 6.297 1.773 20.417-1.17 22.598-4.709.709-1.149.612-3.349-.317-7.221-.96-4.003-1.055-6.492-.335-8.848l1.002-3.279.703 4c.386 2.2 1.203 5.967 1.814 8.37.994 3.903.864 4.826-1.215 8.632l-2.328 4.26 3.785 4.62c2.081 2.54 3.323 4.618 2.76 4.618-.563 0-3.655 2.604-6.87 5.786-4.493 4.446-4.746 4.612-1.097.718z"/>
    <path fill="#7b7b7b" d="M631.311 769.552c.336-.875-.974-3.886-3.056-7.022-2.963-4.463-3.36-5.598-2.12-6.074 2.182-.837 2.203-16.564.025-18.37-.825-.685-1.5-1.834-1.5-2.552 0-1.396.359-1.434 16.738-1.75l10.237-.199 2.355-3.5c1.295-1.925 3.984-7.289 5.976-11.92l3.62-8.419-3.462-3.833c-1.905-2.108-3.464-4.382-3.464-5.053 0-.671 1.325.23 2.944 2.002 1.619 1.773 3.532 3.251 4.25 3.286.719.034 4.635.156 8.704.27l7.397.208 4.731-4.254c4.425-3.978 4.76-4.627 5.166-10.02.24-3.172 1.246-7.456 2.237-9.52 1.187-2.47 1.569-4.694 1.118-6.5-1.793-7.192-2.146-13.334-.83-14.427 2.081-1.727 2.593-.286 1.295 3.646-.993 3.01-.9 4.403.568 8.486 1.655 4.603 1.659 5.036.06 7.475-.933 1.424-2.095 5.76-2.581 9.635-.812 6.469-1.26 7.446-5.472 11.949-2.523 2.697-4.587 5.767-4.587 6.822 0 1.055 1.094 4.392 2.43 7.414 1.338 3.023 2.701 7.242 3.03 9.375.515 3.333.273 3.034-1.72-2.122-4.835-12.502-5.835-13.915-10.545-14.904-6.832-1.434-7.505-.718-19.18 20.404-3.288 5.946-3.846 6.475-6.554 6.201-1.629-.164-5.346-.544-8.262-.845-6.848-.706-9.884.107-10.816 2.897-.413 1.236-.698 7.15-.634 13.144.142 13.306.591 13.982 9.112 13.727 3.293-.099 6.273.283 6.622.848.392.635-.821 1.03-3.174 1.035-2.117.004-5.141.889-6.809 1.993-3.608 2.39-4.634 2.514-3.849.467zM681.094 759.585c1.925-1.925 4.007-3.5 4.628-3.5.62 0-.758 1.575-3.062 3.5s-4.386 3.5-4.628 3.5c-.24 0 1.137-1.575 3.062-3.5zM604.943 753.987c1.344-.783 1.644-1.82 1.217-4.22-.398-2.24.053-4.178 1.521-6.544 2.537-4.088 3.749-3.526 1.553.72-2.264 4.379-2.078 4.867 3.122 8.164l4.696 2.978-6.946-.03c-5.287-.023-6.52-.278-5.163-1.068zM591.661 744.894c0-.17.864-2.559 1.918-5.309 1.482-3.866 2.076-4.595 2.62-3.212.431 1.094.076 2.481-.917 3.578-.892.986-1.622 2.292-1.622 2.904 0 .612-.45 1.39-1 1.73-.55.34-1 .48-.999.31zM689.166 739.113c-.9-4.103.125-5.129 1.504-1.504.661 1.74.71 3.157.129 3.738-.582.581-1.2-.265-1.633-2.234zM634.196 715.353c-2.39-3.516-3.592-6.863-1.696-4.718 1.537 1.739 5.332 8.45 4.778 8.45-.3 0-1.687-1.68-3.082-3.732zM596.66 715.026c0-1.132.45-1.78 1-1.44.55.34 1 1.266 1 2.058 0 .793-.45 1.441-1 1.441s-1-.926-1-2.059zM603.707 712.585c-.024-1.486 1.76-4.025 2.389-3.398.299.3-.112 1.411-.914 2.471s-1.465 1.477-1.475.927zM612.77 702.13c1.787-1.787 3.563-2.724 4.49-2.368 1.104.424.368 1.25-2.636 2.956-5.31 3.016-5.422 2.98-1.854-.589zM628.731 701.867c-2.3-2.87-2.318-2.995-.35-2.37 1.581.502 2.72-.127 4.76-2.626 1.48-1.813 2.197-2.307 1.6-1.101-.594 1.2-1.08 3.027-1.08 4.058 0 1.031-.563 2.593-1.25 3.472-1.112 1.418-1.521 1.259-3.68-1.433zM644.117 691.482c-.878-1.421-1.406-1.494-3.336-.462-2.85 1.526-3.621.869-2.166-1.85.614-1.147 2.112-2.086 3.33-2.088 1.219-.002 3.729-.927 5.578-2.054 4.263-2.6 5.06-1.853 2.012 1.881-1.306 1.6-2.825 3.663-3.375 4.585-.934 1.567-1.068 1.566-2.043-.012zM614.16 688.085c.34-.55 1.068-1 1.618-1s.722.45.382 1c-.34.55-1.068 1-1.618 1s-.722-.45-.382-1zM627.66 681.144c0-.582.45-1.059 1-1.059s1 .199 1 .441c0 .243-.45.72-1 1.06-.55.34-1 .14-1-.442zM671.66 679.73c0-1.376-.707-3.209-1.571-4.073-1.429-1.429-1.34-1.572.98-1.572 1.967 0 3.015-.91 4.58-3.98 1.117-2.188 3.354-4.663 4.971-5.5 4.413-2.28 4.926-1.792 1.317 1.257-1.773 1.498-4.81 5.793-6.75 9.546-2.61 5.05-3.527 6.173-3.527 4.321zM632.66 675.18c0-1.087-.457-2.26-1.016-2.605a1.2 1.2 0 01-.387-1.646c.42-.68.99-.658 1.716.07.598.597 1.883 1.086 2.856 1.086 2.219 0 1.385 2.633-1.286 4.063-1.548.829-1.883.657-1.883-.969zM646.931 665.481c.332-.332 1.195-.368 1.917-.079.798.32.56.556-.604.604-1.054.044-1.645-.193-1.313-.525z"/>
  </g>
  <path fill="#ffbf00" d="M145.212 36.457h14.2c4.223 0 7.46 1.009 9.712 3.026 2.267 2.001 3.4 4.86 3.4 8.577 0 3.733-1.133 6.608-3.4 8.625-2.252 2.001-5.49 3.002-9.712 3.002h-5.644v12.342h-8.556V36.457m8.556 6.647v9.936h4.733c1.66 0 2.941-.43 3.845-1.287.904-.873 1.355-2.104 1.355-3.693 0-1.588-.451-2.811-1.355-3.669-.904-.858-2.185-1.286-3.845-1.287h-4.733m22.045 2.24h7.956l6.69 18.108 5.689-18.108h7.956l-10.468 29.21c-1.052 2.97-2.281 5.043-3.689 6.219-1.392 1.19-3.237 1.786-5.533 1.786h-4.6v-5.598h2.488c1.349 0 2.326-.23 2.934-.691.622-.461 1.104-1.287 1.444-2.478l.223-.739-11.09-27.709" font-family="Helvetica-Bold,Helvetica,sans-serif" font-size="23.685" font-weight="700"/>
  <path fill="#f9f4f4" d="M204.845 36.457h10.89l7.556 19.037 7.6-19.037h10.867V72.03h-8.089V46.01l-7.645 19.18h-5.422l-7.645-19.18V72.03h-8.112V36.457m41.38 0h8.6l8.801 26.256 8.779-26.256h8.6l-12.29 35.572h-10.2l-12.29-35.572m39.158 0h14.2c4.223 0 7.46 1.009 9.712 3.026 2.267 2.001 3.4 4.86 3.4 8.577 0 3.733-1.133 6.608-3.4 8.625-2.252 2.001-5.489 3.002-9.711 3.002h-5.645v12.342h-8.556V36.457m8.556 6.647v9.936h4.734c1.659 0 2.94-.43 3.844-1.287.904-.873 1.356-2.104 1.356-3.693 0-1.588-.452-2.811-1.356-3.669-.904-.858-2.185-1.286-3.844-1.287h-4.734M334.809 65.548H321.43l-2.11 6.48h-8.601l12.29-35.57h10.2l12.29 35.57h-8.601l-2.09-6.48m-11.244-6.6h9.09l-4.534-14.152-4.556 14.152" font-family="Helvetica-Bold,Helvetica,sans-serif" font-size="23.685" font-weight="700"/>
</svg>
