<svg xmlns="http://www.w3.org/2000/svg" width="900" height="300" version="1"><defs><clipPath id="a"><path d="M455.872 24.874h111.583v39.887H455.872V24.874z"/></clipPath></defs><g clip-path="url(#a)" transform="matrix(7.9166 0 0 -7.9166 -3598.957 514.407)"><path fill="#00567e" d="M469.474 47.309c.004-.003.12.218.213.376.757 1.28 5.354 12.672 6.48 15.355a15.431 15.431 0 0 1-4.84.777c-8.536 0-15.456-6.916-15.456-15.447 0-1.407.192-2.768.545-4.063.97.63 6.885 4.722 6.893 4.693.948-3.486 4.138-5.284 6.165-1.691m13.664 11.019c-1.16-2.746-5.069-11.956-6.117-14.03-2.064-3.751-5.362-7.252-9.83-7.453-5.244-.236-8.02 1.765-9.516 4.285 2.596-4.882 7.735-8.206 13.652-8.206 8.536 0 15.455 6.916 15.455 15.446a15.38 15.38 0 0 1-3.644 9.958M499.636 55.724V43.315c0-2.874-.093-3.575-.56-4.439-.725-1.286-2.174-1.87-4.674-1.87-.187 0-.49 0-.888.023v2.501h.514c1.355.023 2.08.234 2.36.724.234.351.257.701.257 2.991v12.48h2.991M513.774 58.786c0-.958-.771-1.73-1.706-1.73a1.72 1.72 0 0 0-1.73 1.706c0 .98.772 1.73 1.73 1.73.935 0 1.706-.771 1.706-1.706m-4.346 0c0-.958-.772-1.73-1.706-1.73a1.72 1.72 0 0 0-1.73 1.706c0 .98.77 1.73 1.73 1.73.934 0 1.706-.771 1.706-1.706m-2.711-3.061v-8.95c0-1.566.046-2.081.28-2.688.42-1.051 1.472-1.66 2.898-1.66 1.659 0 2.71.748 3.038 2.15.117.492.14.959.14 2.198v8.95h2.99v-8.997c0-2.244-.116-3.015-.606-3.996-.89-1.846-2.945-2.898-5.562-2.898-2.617 0-4.674 1.052-5.562 2.898-.491.98-.607 1.752-.607 3.996v8.997h2.99M523.308 55.724v-13.04h6.753v-2.547h-9.814v15.587h3.06zM532.865 55.724h2.991V40.137h-2.991v15.587zM548.92 50.653c-.282 1.8-1.31 2.781-2.899 2.781-2.313 0-3.762-2.127-3.762-5.538 0-3.412 1.45-5.492 3.785-5.492 1.823 0 2.805 1.145 2.992 3.505h2.664c-.187-4.019-2.057-6.075-5.539-6.075-4.276 0-7.01 3.154-7.01 8.038 0 2.851.841 5.072 2.477 6.544 1.192 1.051 2.71 1.612 4.393 1.612 3.318 0 5.282-1.916 5.492-5.375h-2.594M563.944 49.508v6.216h2.991V40.137h-2.99v6.894h-6.193v-6.894h-2.99v15.587h2.99v-6.216h6.192z"/><path fill="#58585a" d="M496.033 31.035v-.465h-1.93v-2.24h-.537v4.772h2.617v-.465h-2.08v-1.602h1.93zM497.572 30.749c0-1.238.537-2.024 1.373-2.024.823 0 1.366.794 1.366 1.995 0 1.209-.543 1.996-1.366 1.996-.822 0-1.373-.787-1.373-1.967m3.312-.03c0-1.465-.787-2.466-1.94-2.466-1.171 0-1.944.994-1.944 2.503 0 1.423.8 2.432 1.945 2.432 1.152 0 1.939-1.001 1.939-2.468M502.957 30.834c.58 0 .744.014.966.093.343.122.536.422.536.83 0 .365-.164.643-.45.765-.222.101-.386.115-1.066.115h-.322v-1.803h.336zm-.028 2.268c.736 0 1.008-.029 1.323-.15.48-.187.772-.637.772-1.202 0-.63-.328-1.059-.98-1.295l1.252-2.124h-.644l-1.2 2.038h-.83v-2.038h-.537v4.771h.844M508.558 31.864c-.05.544-.386.851-.93.851-.501 0-.872-.307-.872-.729 0-.2.1-.379.286-.5.157-.108.157-.108.85-.423.63-.279.88-.436 1.059-.65.172-.215.265-.494.265-.802 0-.815-.63-1.359-1.56-1.359-.578 0-1.037.207-1.308.58-.186.257-.265.514-.286.951h.522c.05-.687.429-1.059 1.094-1.059.58 0 .987.343.987.823 0 .236-.093.421-.286.586-.15.13-.272.193-.744.401-.515.23-.83.4-.994.536a1.087 1.087 0 0 0-.422.873c0 .722.6 1.244 1.438 1.244.522 0 .958-.207 1.2-.572.145-.207.202-.415.223-.75h-.522M513.236 31.779c-.136.629-.501.937-1.087.937-.851 0-1.388-.772-1.388-2.003 0-1.237.529-1.995 1.395-1.995.665 0 1.073.429 1.15 1.23h.509c-.085-1.087-.68-1.703-1.637-1.703-1.216 0-1.99.952-1.99 2.454 0 1.509.774 2.489 1.968 2.489.887 0 1.459-.515 1.58-1.41h-.5M517.72 31.049v2.053h.537V28.33h-.536v2.275h-2.24V28.33h-.535v4.77h.536V31.05h2.239zM520.167 33.102V30.29c0-.73.029-.908.172-1.13.179-.272.543-.436.98-.436.507 0 .908.22 1.05.586.08.186.094.372.094.98v2.81h.536v-2.817c0-.758-.014-.887-.114-1.145-.23-.557-.808-.886-1.566-.886-.766 0-1.345.329-1.574.886-.1.258-.114.387-.114 1.145v2.818h.536M524.959 33.102l2.289-3.97v3.97h.501V28.33h-.586l-2.275 3.963V28.33h-.508v4.77h.579zM532.577 30.699v-1.96a2.621 2.621 0 0 0-1.573-.494c-1.288 0-2.061.93-2.061 2.482 0 1.503.773 2.46 1.989 2.46.894 0 1.473-.507 1.58-1.401h-.5c-.143.637-.486.93-1.08.93-.88 0-1.416-.751-1.416-1.996 0-1.273.544-2.002 1.495-2.002.364 0 .729.107 1.08.314v1.202h-.966v.465h1.452M536.103 31.864c-.05.544-.386.851-.93.851-.5 0-.872-.307-.872-.729 0-.2.1-.379.286-.5.157-.108.157-.108.85-.423.63-.279.88-.436 1.06-.65a1.27 1.27 0 0 0 .264-.802c0-.815-.63-1.359-1.56-1.359-.58 0-1.036.207-1.308.58-.186.257-.265.514-.286.951h.522c.05-.687.429-1.059 1.094-1.059.58 0 .988.343.988.823 0 .236-.093.421-.286.586-.151.13-.272.193-.745.401-.515.23-.83.4-.994.536a1.089 1.089 0 0 0-.421.873c0 .722.6 1.244 1.437 1.244.522 0 .959-.207 1.202-.572.143-.207.2-.415.222-.75h-.523M540.674 33.102v-.365l-2.453-3.941h2.41v-.465h-3.04v.415l2.432 3.898h-2.282v.458h2.933zM544.193 31.035v-.465h-1.931v-1.774h2.132v-.465h-2.67v4.77h2.62v-.464h-2.082v-1.602h1.93zM546.11 33.102l2.289-3.97v3.97h.5V28.33h-.587l-2.274 3.963V28.33h-.508v4.77h.58zM552.898 33.102v-.465h-1.245V28.33h-.536v4.306h-1.238v.465h3.019zM554.742 30.834c.58 0 .744.014.966.093.343.122.536.422.536.83 0 .365-.164.643-.45.765-.222.101-.386.115-1.066.115h-.322v-1.803h.336zm-.028 2.268c.736 0 1.008-.029 1.323-.15.48-.187.772-.637.772-1.202 0-.63-.328-1.059-.98-1.295l1.252-2.124h-.644l-1.2 2.038h-.83v-2.038h-.537v4.771h.844M558.519 33.102V30.29c0-.73.028-.908.172-1.13.178-.272.543-.436.98-.436.507 0 .908.22 1.05.586.079.186.094.372.094.98v2.81h.536v-2.817c0-.758-.014-.887-.114-1.145-.23-.557-.81-.886-1.566-.886-.766 0-1.345.329-1.574.886-.101.258-.115.387-.115 1.145v2.818h.537M563.54 33.102l1.338-4.184 1.345 4.184h.808V28.33h-.508v4.235l-1.373-4.235h-.537l-1.373 4.235V28.33h-.508v4.77h.808z"/></g></svg>