<svg xmlns="http://www.w3.org/2000/svg" width="188" height="88"><text style="line-height:0%" transform="matrix(1.25 0 0 1.25 54.99 -903.025)"><tspan x="0 7.2919002 14.9798 21.4687 28.815599 36.2505 42.871399 49.008301 52.175201 58.159199 64.143204 67.223198 69.346199 72.426201 78.410202 84.394203 89.784203" y="0" fill="#fff" font-family="CelesteSansPro" font-size="11" font-weight="700" style="line-height:1.25;-inkscape-font-specification:CelesteSansPro-Bold">AUSGABE 03 | 2010</tspan></text><path fill="#231f20" d="M164.007 74.32v-1.14h-5.626v-4.678h4.62V67.4h-4.62v-4.08h5.316v-1.063h-6.805v12.063h7.115zm-12.39 0h1.313V62.259h-1.314v7.888c0 .85.076 1.893.154 2.358-.154-.483-.579-1.353-1.083-2.108l-5.412-8.138h-1.856v12.063h1.295v-8.777c0-.83-.078-1.895-.174-2.338.174.463.6 1.333 1.102 2.087l5.974 9.028zm-12.548-12.062h-1.565v12.063h1.565V62.258zm-4.948 12.063v-1.14h-5.626V68.5h4.62v-1.1h-4.62v-4.08h5.316v-1.063h-6.805v12.063h7.115zm-18.365 0v-5.76h5.935v5.76h1.546V62.258h-1.546v5.239h-5.935v-5.239h-1.547v12.063h1.547zm-17.605 0v-5.76h5.935v5.76h1.548V62.258h-1.548v5.239h-5.935v-5.239h-1.546v12.063h1.546zm-4.33-11.232c-.927-.677-2.222-1.025-3.905-1.025-3.924 0-5.857 2.65-5.857 6.38 0 3.692 1.76 6.128 5.587 6.128 1.663 0 3.17-.521 4.079-1.044l-.464-1.315c-.754.561-2.069 1.123-3.422 1.123-2.958 0-4.195-2.243-4.195-4.757 0-2.532.928-5.452 4.233-5.452 1.702 0 2.475.504 3.19 1.064l.754-1.102zm-13.126-.83H79.13V74.32h1.565V62.258zm-7.829 2.628c0 2.107-1.642 2.455-3.48 2.455h-.347v-4.118c.367-.038.792-.057 1.333-.057 1.005 0 2.494.154 2.494 1.72m-3.827 3.537h.212c2.629 0 3.905 4.157 4.833 5.935l1.817-.038c-.754-1.198-2.087-5.664-4.716-6.4 1.759-.173 3.305-.888 3.305-3.092 0-1.837-1.238-2.668-3.866-2.668-1.624 0-2.34.077-3.132.116V74.32h1.547v-5.897zm-6.824 5.897h1.315V62.258h-1.315v7.888c0 .85.077 1.893.155 2.358-.155-.483-.58-1.353-1.083-2.108l-5.413-8.138h-1.855v12.063h1.293v-8.777c0-.83-.076-1.895-.173-2.338.173.463.6 1.333 1.102 2.087l5.974 9.028zM49.669 62.258h-1.567v12.063h1.567V62.258zm-4.95 12.063v-1.14h-5.624V68.5h4.62v-1.1h-4.62v-4.08h5.316v-1.063h-6.805v12.063h7.114zm-18.364 0v-5.76h5.935v5.76h1.546V62.258H32.29v5.239h-5.935v-5.239h-1.546v12.063h1.546M164.014 79.914v-.65h-4.043v7.387h.885v-3.563h2.745v-.675h-2.745v-2.499h3.158zm-7.533.96c0 1.29-.976 1.503-2.067 1.503h-.207v-2.521c.22-.024.472-.035.793-.035.596 0 1.481.093 1.481 1.052m-2.274 2.166h.127c1.562 0 2.32 2.547 2.87 3.635l1.08-.023c-.448-.734-1.24-3.47-2.802-3.92 1.045-.105 1.963-.543 1.963-1.893 0-1.125-.734-1.634-2.296-1.634-.964 0-1.39.048-1.86.072v7.375h.918v-3.612zm-3.675-.153c0 1.953-.895 3.232-2.41 3.232-1.517 0-2.412-1.279-2.412-3.232 0-1.918 1.011-3.102 2.411-3.102 1.401 0 2.411 1.184 2.411 3.102m1.012 0c0-2.31-1.448-3.742-3.423-3.742s-3.421 1.433-3.421 3.742c0 2.52 1.354 3.918 3.421 3.918 2.068 0 3.423-1.42 3.423-3.918m-9.118 0c0 2.533-1.264 3.16-2.734 3.16-.287 0-.573-.01-.918-.058v-6.156c.263-.011.54-.011.78-.011 2 0 2.872 1.052 2.872 3.065m1.021-.024c0-2.461-1.435-3.645-3.708-3.645-.942 0-.942.022-1.884.046v7.388c.437 0 1.126.023 1.872.023 1.54 0 3.72-.65 3.72-3.812m-7.073 3.789v-.7h-3.34v-6.688h-.897v7.388h4.237zm-6.017 0v-.7h-3.342v-2.863h2.745v-.675h-2.745v-2.499h3.157v-.65h-4.04v7.387h4.225zm-6.247-2.12c0-1.61-1.321-1.988-1.986-2.19-.747-.224-1.585-.473-1.585-1.468 0-.675.608-1.076 1.343-1.076a2.21 2.21 0 0 1 1.574.639l.436-.675c-.378-.392-1.103-.617-1.93-.617-1.342 0-2.365.688-2.365 1.954 0 1.564 1.574 1.99 2.08 2.119.608.155 1.47.38 1.47 1.527 0 1.007-.805 1.35-1.46 1.35-.953 0-1.458-.603-1.746-.947l-.561.627c.459.533 1.112 1.03 2.284 1.03 1.39 0 2.446-.865 2.446-2.272m-6.465 0c0-1.61-1.32-1.989-1.986-2.191-.748-.224-1.585-.473-1.585-1.468 0-.675.608-1.076 1.343-1.076a2.21 2.21 0 0 1 1.574.639l.436-.675c-.378-.392-1.102-.617-1.93-.617-1.343 0-2.365.688-2.365 1.954 0 1.564 1.574 1.99 2.08 2.119.607.155 1.47.38 1.47 1.527 0 1.007-.806 1.35-1.46 1.35-.952 0-1.458-.603-1.745-.947l-.563.627c.46.533 1.113 1.03 2.285 1.03 1.39 0 2.446-.865 2.446-2.272m-9.864-6.748a.533.533 0 0 0-.527-.533.54.54 0 0 0-.53.533.54.54 0 0 0 .53.533.533.533 0 0 0 .527-.533m2.125 0a.54.54 0 0 0-.529-.533.533.533 0 0 0 0 1.066.54.54 0 0 0 .53-.533m1.17 6.108v-4.629h-.896v4.546c0 1.954-.815 2.415-1.86 2.415-1.056 0-1.86-.46-1.86-2.415v-4.546h-.93v4.629c0 2.179.941 3.007 2.79 3.007 1.849 0 2.756-.828 2.756-3.007m-8.198-1.006c0 2.533-1.264 3.16-2.734 3.16-.286 0-.574-.01-.919-.058v-6.156c.265-.011.54-.011.781-.011 1.998 0 2.872 1.052 2.872 3.065m1.02-.024c0-2.461-1.434-3.645-3.708-3.645-.942 0-.942.022-1.884.046v7.388c.437 0 1.125.023 1.873.023 1.537 0 3.72-.65 3.72-3.812m-11.106-2.913v-.686h-6.168v.686h2.584v6.702h.942v-6.702h2.642zm-10.038-2.165a.533.533 0 0 0-.527-.533.54.54 0 0 0-.53.533.54.54 0 0 0 .53.533.533.533 0 0 0 .527-.533m2.125 0a.54.54 0 0 0-.529-.533.532.532 0 0 0-.527.533c0 .284.229.533.527.533a.54.54 0 0 0 .53-.533m-1.976 3.422c.115-.344.253-.818.31-1.173.058.403.184.805.321 1.173l.862 2.307h-2.297l.804-2.307zm2.653 5.445h.952l-2.801-7.447-.896.06-2.664 7.387h.861l.873-2.522h2.745l.93 2.522zm-5.57-6.702v-.686h-6.167v.686h2.584v6.702h.943v-6.702h2.64zm-7.832-.686h-.93v7.388h.93v-7.388zm-3.18 5.269c0-1.61-1.32-1.989-1.987-2.191-.746-.224-1.585-.473-1.585-1.468 0-.675.61-1.076 1.344-1.076.792 0 1.31.379 1.573.639l.437-.675c-.38-.392-1.103-.617-1.93-.617-1.343 0-2.365.688-2.365 1.954 0 1.564 1.573 1.99 2.078 2.119.61.155 1.47.38 1.47 1.527 0 1.007-.803 1.35-1.458 1.35-.953 0-1.458-.603-1.745-.947l-.563.627c.459.533 1.114 1.03 2.285 1.03 1.389 0 2.445-.865 2.445-2.272m-7.935-3.659c0 1.291-.975 1.504-2.066 1.504h-.206v-2.521a7.33 7.33 0 0 1 .792-.035c.596 0 1.48.093 1.48 1.052M58.77 83.04h.126c1.561 0 2.32 2.547 2.871 3.635l1.079-.023c-.448-.734-1.24-3.47-2.803-3.92 1.047-.105 1.964-.543 1.964-1.893 0-1.125-.735-1.634-2.296-1.634-.964 0-1.39.048-1.86.072v7.375h.919v-3.612zm-2.7 3.612v-.7h-3.34v-2.863h2.743v-.675H52.73v-2.499h3.157v-.65h-4.042v7.387h4.226zm-8.67-2.344c-.194.485-.367 1.089-.424 1.491-.058-.402-.195-.911-.425-1.504l-1.918-5.03h-1.01l2.974 7.493h.609l3.066-7.494h-.861l-2.01 5.044zm-5.614-5.044h-.93v7.388h.93v-7.388zm-4.295 7.388h.781v-7.388h-.781v4.83c0 .521.046 1.16.092 1.445-.092-.296-.345-.829-.643-1.291l-3.215-4.984H32.62v7.388h.77v-5.375c0-.51-.046-1.16-.104-1.433.104.284.357.818.654 1.279l3.549 5.529zm-7.108-2.76v-4.628h-.896v4.546c0 1.954-.815 2.415-1.86 2.415-1.056 0-1.86-.46-1.86-2.415v-4.546h-.93v4.629c0 2.179.941 3.007 2.79 3.007 1.849 0 2.756-.828 2.756-3.007"/><path fill="#d0d1d1" d="M24.712 40.974v16.46h139.305V16.598L24.712 40.974"/><path fill="#315ca5" d="M77.782 42.114a13.124 13.124 0 0 1-5.417 3.425c-1.604.517-.476-.853.2-1.57.859-.91 2.035-1.928 2.992-2.735 2.278-1.913 4.712-3.658 7.217-5.266-1.567 2.145-3.187 4.244-4.992 6.146m-46.718-19.05c.842-.6 1.682-1.208 2.605-1.743 1.377-.798 1.982-.428.802.596-1.387 1.205-2.791 2.081-4.402 3.021-1.485.866-2.972 1.698-4.518 2.44a79.208 79.208 0 0 1 5.513-4.314m70.638-7.482c1.033-.579 2.673-1.038.918.394-.683.556-1.536 1.087-2.298 1.573-1.445.923-2.686 1.724-4.298 2.744 1.216-1.256 3.7-3.605 5.678-4.711m2.778 7.817c-.139-.338-5.425 2.487-6.776 3.177-2.773 1.416-5.344 2.775-11.434 6.07 2.464-3.374 5.495-7.477 7.737-10.104 1.252-.794 2.494-1.596 3.743-2.369 1.636-1.015 2.96-1.777 4.562-2.849 1.02-.68 3.438-2.14 3.27-3.343-.203-1.45-2.368-.414-2.74-.247-1.637.738-3.302 1.962-4.657 3.097-1.853 1.552-3.731 3.603-5.29 5.413-1.865 1.505-4.919 3.06-6.998 4.065.903-.632 1.404-1.217 1.098-1.578-.498-.587-1.883.308-2.683.73-.647.34-4.212 2.42-5.165 1.97-.25-.134.323-.478.55-.59.773-.373 1.08-.562 3.233-1.46.645-.27 1.117-.538 1.09-1.365-.019-.49-1.081-.158-1.739.15-.687.32-1.799.693-3.154.998-1.1.247-2.787.585-3.767.49.009-.107-.149-.52-.628-.582-.44-.056-.798.126-1.323.489-.258.177-1.447 1.247-1.12 1.683-.394.41-1.172.887-1.258.927-.427.2-1.064.722-1.912.962-1.404.4-.443-.284.14-.71 1.05-.764 2.183-1.701 1.75-2.091-.434-.39-1.852.386-2.288.606-1.837.929-4.431 2.365-6.825 3.326-1.181.474-1.682.69-1.849.527-.37-.363 1.727-1.05 2.412-2.234.066-.114.178-.314.078-.448-.503-.667-2.585.583-3.086.818-2.282 1.069-4.714 2.319-5.466 2.597-.916.34-1.931.693-2.009.54-.079-.153 1.516-.977 2.168-1.325.796-.425 2.293-1.118 2.465-1.553.095-.245.077-.433-.07-.527-.878-.567-4.448 1.314-7.555 2.695-.858.38-1.918.912-2.682 1.225-.872.358-1.853.812-2.088.64-.093-.07.693-.51.937-.63 1.413-.7 3.695-1.792 4.081-2.252.118-.14.238-.525.09-.705-.482-.581-1.856.441-3.115.95-1.54.622-3.065 1.27-4.603 1.89a88.303 88.303 0 0 1-4.688 1.751c-.787.265-1.872.68-2.094.43-.177-.201 2.1-1.176 2.882-1.745.275-.199 1.146-.831.903-1.275-.325-.597-6.845 3.421-7.22 3.263-.57-.24 3.88-2.61 3.97-2.688.243-.209.914-.54.743-.915-.509-1.106-3.579 1.073-11.014 4.948.843-.84 1.7-1.662 2.554-2.49.442-.43 1.265-1.05 1.426-1.688.438-1.719-2.997.399-3.331.62-2.046 1.364-4.003 2.863-6.064 4.198l.044-.042c.612-.575 2.42-2.156 2.22-3.16-.229-1.152-2.166-.426-3.933.51 1.483-1.44 3.082-2.7 4.618-4.09 2.689-1.307 5.3-2.743 7.886-4.25 2.21-1.286 4.866-2.745 6.368-4.888.39-.558.766-1.325.106-1.83-.736-.563-2.209.34-2.84.68-2.919 1.567-5.664 3.936-8.154 6.092a327.942 327.942 0 0 0-3.282 2.884c-2.885 1.435-7.512 3.561-10.617 4.465-1.095.319-6.58 1.445-5.485-.783 1.028-2.088 7.952-6.205 7.548-6.426-.179-.097-6.304 3.484-8.333 6.001-.436.54-1.332 1.513-1.035 2.294.433 1.131 3.042.911 3.97.763 4.46-.72 7.617-2.255 11.345-3.967a180.119 180.119 0 0 0-5.486 5.222c-.715.712-.329 1.18.5.602.823-.572 1.664-1.184 2.578-1.602.188-.087 2.637-.905 2.233-.095-.677 1.357-2.577 2.676-3.708 3.686-.453.404-1.097 1.537.033.967 2.455-1.238 4.947-2.758 7.134-4.425.606-.46 1.54-1.018 2.158-1.467.523-.38 1.545-.931 1.718-1.093-3.483 3.253-6.643 6.477-9.503 10.22-3.028 3.963-5.86 8.107-9.1 11.905-.8.938-2.258 1.878-2.17.445.075-1.21 1.03-2.477 1.736-3.417 1.195-1.589 2.54-3.071 4.17-4.873.95-1.047 1.822-1.84 1.625-2.02-.15-.136-5.124 4.702-7.096 7.06-1.3 1.554-2.717 4.373-1.25 5.362 1.47.988 3.688-1.958 4.606-3.034 2.262-2.658 4.322-5.528 6.416-8.319 1.948-2.596 3.881-5.126 6.024-7.522a2.14 2.14 0 0 0 .197-.154c.52-.45 4.372-3.179 7.522-4.585-.707.332-1.785 1.395-2.192 1.841-.526.58.163 1.015 1.257.751.7-.168 2.37-.9 3.256-1.398a.966.966 0 0 0-.134.233c-.061.162.093.59.589.653 1.159.146 4.636-1.349 5.875-1.859 1.405-.579 2.767-1.146 4.149-1.717.12-.05.362-.212.678-.34-.59.383-1.507 1.13-1.86 1.738-.076.13-.133.355-.046.503.766 1.285 7.491-2.416 8.614-2.854.211-.082.425-.159.637-.237-1.237 1.003-2.492 2.65.192 2.14 1.852-.353 3.787-1.378 5.466-2.184.484-.231.962-.471 1.442-.708-.266.252-.5.53-.677.85-.338.608.155.964.715.853 2.369-.473 5.52-2.165 7.725-3.146.625-.278 1.285-.567 1.906-.858a7.543 7.543 0 0 0-1.495 1.16c-1.387 1.376.449 1.503 1.675.818-1.309 1.415.666 1.207 1.203.79.445-.348 1.462-1.02 2.396-1.787 1.642-1.35 1.862-1.65 2.394-2.128.675-.093 1.51-.294 2.02-.4 1.247-.26 2.72-.728 3.946-1.063-.328.181-1.508.746-1.796.943-.818.557-2.547 1.898-.567 2.192.95.143 2.63-.319 3.752-.84.175-.081.716-.354 1.058-.577-.25.112-.356.36-.337.42.319 1.065 3.062-.383 3.24-.468 2.172-1.047 3.685-1.81 5.667-3.009-1.348 1.682-4.303 5.735-4.563 6.072a93.438 93.438 0 0 0-2.674 3.587c-2.073 1.333-3.61 2.408-5.61 3.789-2.739 1.892-5.059 3.766-6.164 4.75-1.39 1.236-2.51 2.314-2.836 3.812-.31 1.425 2.129.81 2.625.69 1.767-.423 3.647-1.625 5.026-2.766 3.161-2.619 5.384-6.279 7.783-9.551 2-1.259 4.025-2.475 6.075-3.656 4.422-2.55 13.72-7.433 13.636-7.637m12.26 10.853c-1.686 2.219-4.455 5.01-6.906 6.722-.713.5-4.33 2.755-3.964.854.296-1.545 4.076-5.57 7.002-8.36 3.46-3.3 6.744-6.247 10.813-9.405-2.316 3.398-4.464 6.923-6.945 10.189M132.862 8.36c2.17-1.72 3.518-2.797 5.904-3.962 1.635-.797.431.548-.194 1.095-.73.64-1.833 1.39-2.672 1.897-2.295 1.386-4.068 2.336-6.465 3.66 1.104-.894 2.316-1.808 3.427-2.69m50.563-2.213c-1.24.725-3.375 2.193-3.624 2.368-.216-.09-.247-.164-.817.125.743-.76.986-1.42.47-1.485-.728-.093-2.302.526-3.12.933-1.423.71-2.834 1.3-4.244 1.888-1.075.447-2.27.9-3.368 1.294-.558.2-1.6.45-1.746.212-.145-.239 1.929-1.337 3.005-1.976.286-.17 1.151-.596.861-1.139-.25-.465-1.375.14-1.68.279-2.66 1.207-3.32 1.577-5.998 2.651-.844.338-2.595.969-3.473 1.211-1.071.295-.502-.178-.142-.375.863-.432 1.67-.746 2.498-1.226 1.007-.582.4-1.28-.215-1.067-4.13 1.427-7.265 2.868-11.36 4.312-.32.113-.963.27-1.036.15-.072-.119 1.818-1.047 2.468-1.357a54.882 54.882 0 0 0 2.28-1.153c.372-.196.6-.492.235-.846-.37-.358-1.304-.011-1.704.177-2.611 1.228-9.339 4.307-12.899 5.418-.239.074-1.207.332-1.277.056-.038-.155 1.152-.79 1.692-1.145 1.141-.75 2.823-1.506 3.55-2.727.078-.133.165-.304.079-.453-.394-.672-4.066 1.755-4.614 1.921-.194.06.555-.497 1.253-1.006.605-.442.853-.791.878-1.365.038-.831-.79-.32-1.076-.189-3.072 1.412-5.941 3.45-8.735 5.333a105.857 105.857 0 0 0-3.07 2.15c.265-.323.534-.644.818-.955.532-.586 3.612-3.343 2.86-4.256-.102-.124-.337-.044-.448-.002-.895.343-1.551 1.07-2.22 1.728-1.277 1.257-2.721 2.396-4.151 3.476-.511.385-1.038.749-1.598 1.059-1.083.599.32-1.049.805-1.554 1.24-1.295 2.673-2.564 3.907-3.864.243-.256.557-1.267-.303-1.02-1.82.52-3.325 1.43-4.544 2.065.897-.755 1.564-1.422 2.105-1.827a279.85 279.85 0 0 0 9.737-5.195c2.422-1.353 6.15-3.894 6.683-5.361.19-.518-.042-1.113-.583-1.208-2.493-.432-7.105 3.465-9.674 5.664-2.014 1.725-3.818 3.147-5.881 4.819-1.413.695-3.03 1.517-4.438 2.213-2.057 1.018-4.732 2.124-6.409 2.745-.74.275-1.855.533-2.625.7-2.007.432-1.406-.45-.442-1.133 1.526-1.084 1.754-1.36.935-1.08-1.331.455-5.145 2.95-2.729 3.345 1.353.22 3.323-.382 4.371-.76 2.165-.783 3.82-1.447 5.78-2.37.718-.338 1.427-.69 2.14-1.037-1.333 1.12-2.686 2.49-3.958 3.678-.75.697-.31 1.22.508.607 2.043-1.53 4.342-2.59 6.672-3.588-1.153 1.172-2.272 2.252-3.288 3.538-.644.815-1.86 2.638-.397 2.36 1.37-.262 2.59-1.28 3.673-2.098 1.124-.85 1.24-.935 2.297-1.87-.045.052.55-.41.505-.358-.537.601-.752.896-1.285 1.5-.607.683-1.14 1.426-1.667 2.174-6.025 4.664-11.992 9.72-17.192 15.186-2.124 2.231-5.939 6.763-3.401 7.285 1.258.26 2.707-.321 4.435-1.289 1.773-.993 3.078-2.187 4.542-3.597 5.229-5.04 8.054-10.375 11.725-16.038.218-.335.46-.648.691-.97 3.573-2.813 6.042-4.613 10.01-6.9-.276.212-.443.32-.718.532-.744.573-2.785 1.765-1.904 2.536.559.487 1.999-.188 2.461-.604-.49.805.389.76 1.395.599 2.451-.39 4.493-1.47 6.663-2.395 1.335-.57 2.663-1.15 4.01-1.689-.773.599-1.517 1.349-1.14 1.8.677.805 4.065-.81 4.745-1.064 1.553-.58 4.545-1.767 4.667-1.726-.497.269-1.445 1.708-.102 1.488.83-.137 5.677-1.943 9.048-3.254-.88.631-1.54 1.324-1.52 2.067.004.097.053.155.147.175.693.178 1.535-.237 2.182-.448 1.409-.46 2.798-.988 4.181-1.518 1.58-.607 3.132-1.287 4.7-1.922.325-.132 3.314-1.34 2.595-.454-.393.485-.845.924-1.247 1.402-.479.57-.018.787.667.57a7.049 7.049 0 0 0 1.304-.532c.291-.15-.207.046.055.405.346.477 1.174.015 1.589-.079.321-.075.492-.462.304-.722-.06-.08-.125-.172-.29-.212 1.043-.986 2.14-1.897 3.266-2.826 1.259-1.039 1.326-1.742-.095-.91m-26.858-3.516c.068-.02.042-.009 0 0m-1.793 1.701c.057-.01.113-.034.17-.052.043.045.118.068.246.055.579-.064 1.12-.477 1.517-.863.243-.237.824-.909.302-1.162-.138-.068-.41.028-.537.066-.157.046-.302.122-.448.194-.584.29-1.052.77-1.417 1.3-.138.2-.163.515.167.462M47.979 25.3c.12-.04.227-.107.34-.163h.002c.075-.032.151-.064.229-.093l.101-.034a2.44 2.44 0 0 1 .198-.04c.005 0 .006 0 .01.002h.005c.007.023.01.048.026.068.106.128.347.048.465.003.502-.186 1.064-.621 1.321-1.099l.028-.049c.046-.086.205-.352.08-.457-.353-.299-.965-.056-1.33.099-.71.298-1.552.802-1.875 1.532-.14.313.216.294.4.231m33.372-5.302c.131.027.284-.024.413-.085.07.116.292.067.392.042a3.091 3.091 0 0 0 1.204-.623c.337-.275.775-.68.791-1.15.015-.49-.724-.27-.954-.18-.27.108-.518.247-.758.41-.23.158-.432.338-.634.528a4.01 4.01 0 0 0-.23.254c-.064.076-.285.389-.114.155-.08.109-.434.579-.11.649"/><path fill="none" stroke="#fff" stroke-miterlimit="10" stroke-width="1.5625" d="M-14.174-964.361h-18.75m791.192 0h18.75M-14.175 88h-18.75m791.191 0h18.75M0-978.535v-18.75M0 102.174v18.75M744.094-978.535v-18.75m0 1099.459v18.75"/></svg>