<?xml version="1.0" encoding="UTF-8" standalone="no"?>
<svg
   xmlns:dc="http://purl.org/dc/elements/1.1/"
   xmlns:cc="http://creativecommons.org/ns#"
   xmlns:rdf="http://www.w3.org/1999/02/22-rdf-syntax-ns#"
   xmlns:svg="http://www.w3.org/2000/svg"
   xmlns="http://www.w3.org/2000/svg"
   xmlns:sodipodi="http://sodipodi.sourceforge.net/DTD/sodipodi-0.dtd"
   xmlns:inkscape="http://www.inkscape.org/namespaces/inkscape"
   width="130.01666mm"
   height="130.01666mm"
   viewBox="0 0 130.01666 130.01666"
   version="1.1"
   id="svg8"
   inkscape:version="1.0.1 (3bc2e813f5, 2020-09-07)"
   sodipodi:docname="playbutton.svg"
   inkscape:export-filename="/tmp/play.png"
   inkscape:export-xdpi="12.5"
   inkscape:export-ydpi="12.5">
  <defs
     id="defs2">
		
		
		
	</defs>
  <sodipodi:namedview
     id="base"
     pagecolor="#ffffff"
     bordercolor="#666666"
     borderopacity="1.0"
     inkscape:pageopacity="0.0"
     inkscape:pageshadow="2"
     inkscape:zoom="0.49497475"
     inkscape:cx="665.3834"
     inkscape:cy="383.8034"
     inkscape:document-units="mm"
     inkscape:current-layer="g861"
     inkscape:document-rotation="0"
     showgrid="false"
     fit-margin-top="0"
     fit-margin-left="0"
     fit-margin-right="0"
     fit-margin-bottom="0"
     inkscape:window-width="3440"
     inkscape:window-height="1361"
     inkscape:window-x="0"
     inkscape:window-y="30"
     inkscape:window-maximized="1" />
  <metadata
     id="metadata5">
    <rdf:RDF>
      <cc:Work
         rdf:about="">
        <dc:format>image/svg+xml</dc:format>
        <dc:type
           rdf:resource="http://purl.org/dc/dcmitype/StillImage" />
        <dc:title></dc:title>
      </cc:Work>
    </rdf:RDF>
  </metadata>
  <g
     inkscape:label="Layer 1"
     inkscape:groupmode="layer"
     id="layer1"
     transform="translate(-40.061533,-69.112571)">
    <g
       id="g861"
       transform="matrix(0.26458333,0,0,0.26458333,40.561533,69.612571)">
	<circle
   style="fill:#333;fill-opacity:1;stroke:#ffda99;stroke-width:3.77953;stroke-miterlimit:4;stroke-dasharray:none;stroke-opacity:1"
   cx="243.811"
   cy="243.811"
   r="243.811"
   id="circle851" />
<path
   id="path853"
   style="fill:#1a1a1a"
   d="m 152.77148,400.94531 c 35.99219,28.02409 71.98438,56.04818 107.97657,84.07227 89.14956,-5.2479 172.45494,-64.88147 206.07672,-147.64629 6.4148,-15.24934 11.26466,-31.16149 14.3725,-47.41231 C 380.26693,228.25911 279.33659,166.55924 178.40625,104.85938 169.86133,203.55469 161.31641,302.25 152.77148,400.94531 Z" />
<g
   id="g857"
   style="stroke:#ffda99;stroke-width:3.77953;stroke-miterlimit:4;stroke-dasharray:none;stroke-opacity:1">
			<path
   style="fill:white;stroke:#ffda99;stroke-width:3.77953;stroke-miterlimit:4;stroke-dasharray:none;stroke-opacity:1"
   d="M 150.686,401.856 V 85.766 l 261.773,158.045 z m 38,-248.759 v 181.427 l 150.252,-90.713 z"
   id="path855" />

		</g>

</g>
    <g
       id="g863"
       transform="matrix(0.26458333,0,0,0.26458333,40.561533,69.612571)">
</g>
    <g
       id="g865"
       transform="matrix(0.26458333,0,0,0.26458333,40.561533,69.612571)">
</g>
    <g
       id="g867"
       transform="matrix(0.26458333,0,0,0.26458333,40.561533,69.612571)">
</g>
    <g
       id="g869"
       transform="matrix(0.26458333,0,0,0.26458333,40.561533,69.612571)">
</g>
    <g
       id="g871"
       transform="matrix(0.26458333,0,0,0.26458333,40.561533,69.612571)">
</g>
    <g
       id="g873"
       transform="matrix(0.26458333,0,0,0.26458333,40.561533,69.612571)">
</g>
    <g
       id="g875"
       transform="matrix(0.26458333,0,0,0.26458333,40.561533,69.612571)">
</g>
    <g
       id="g877"
       transform="matrix(0.26458333,0,0,0.26458333,40.561533,69.612571)">
</g>
    <g
       id="g879"
       transform="matrix(0.26458333,0,0,0.26458333,40.561533,69.612571)">
</g>
    <g
       id="g881"
       transform="matrix(0.26458333,0,0,0.26458333,40.561533,69.612571)">
</g>
    <g
       id="g883"
       transform="matrix(0.26458333,0,0,0.26458333,40.561533,69.612571)">
</g>
    <g
       id="g885"
       transform="matrix(0.26458333,0,0,0.26458333,40.561533,69.612571)">
</g>
    <g
       id="g887"
       transform="matrix(0.26458333,0,0,0.26458333,40.561533,69.612571)">
</g>
    <g
       id="g889"
       transform="matrix(0.26458333,0,0,0.26458333,40.561533,69.612571)">
</g>
    <g
       id="g891"
       transform="matrix(0.26458333,0,0,0.26458333,40.561533,69.612571)">
</g>
  </g>
</svg>
